<?xml version="1.0" encoding="utf-8"?>
<!-- Generator: Adobe Illustrator 28.0.0, SVG Export Plug-In . SVG Version: 6.00 Build 0)  -->
<svg version="1.1" id="Layer_1" xmlns="http://www.w3.org/2000/svg" x="0px" y="0px"
	 viewBox="0 0 500 300" style="enable-background:new 0 0 500 300;" xml:space="preserve">
<style type="text/css">
	.st0{fill:#30BED2;}
	.st1{fill:#2EBED2;}
	.st2{fill:#4EC4D6;}
	.st3{fill:#66CAD9;}
	.st4{fill:#5BC7D8;}
	.st5{fill:#73CDDC;}
	.st6{fill:#41C2D5;}
	.st7{fill:#38C0D2;}
	.st8{fill:#62C9D9;}
	.st9{fill:#FAFCFD;}
	.st10{fill:#7BCFDD;}
	.st11{fill:#87D3E0;}
	.st12{fill:#90D5E2;}
	.st13{fill:#80D1DF;}
	.st14{fill:#A1DBE6;}
	.st15{fill:#A9DEE8;}
	.st16{fill:#B1E1E9;}
	.st17{fill:#E6753E;}
	.st18{fill:#F5A841;}
	.st19{fill:#EC863E;}
	.st20{fill:#BCE4EC;}
	.st21{fill:#F19C40;}
	.st22{fill:#EF9340;}
	.st23{fill:#F8BB47;}
	.st24{fill:#FAC55D;}
	.st25{fill:#FBCC70;}
	.st26{fill:#FBD07C;}
	.st27{fill:#FDD993;}
	.st28{fill:#FDDFA5;}
	.st29{fill:#E41954;}
	.st30{fill:#1A5783;}
	.st31{fill:#1B5783;}
	.st32{fill:#235985;}
	.st33{fill:#265A85;}
	.st34{fill:#225985;}
	.st35{fill:#225984;}
	.st36{fill:#275A86;}
	.st37{fill:#245985;}
	.st38{fill:#1F5884;}
	.st39{fill:#215884;}
	.st40{fill:#215984;}
	.st41{fill:#295B86;}
	.st42{fill:#265A86;}
	.st43{fill:#255A85;}
	.st44{fill:#2D5D87;}
	.st45{fill:#185682;}
	.st46{fill:#3491CE;}
	.st47{fill:#4696D1;}
	.st48{fill:#88847C;}
	.st49{fill:#8A846C;}
	.st50{fill:#F6D619;}
	.st51{fill:#686457;}
	.st52{fill:#BCAB58;}
	.st53{fill:#D8BF40;}
	.st54{fill:#CAB54C;}
	.st55{fill:#AF7245;}
	.st56{fill:#448FBA;}
	.st57{fill:#968C60;}
	.st58{fill:#EDCF26;}
	.st59{fill:#E4C832;}
	.st60{fill:#A59A6C;}
	.st61{fill:#827A5E;}
	.st62{fill:#A19B87;}
	.st63{fill:#F4DA5E;}
	.st64{fill:#79746E;}
	.st65{fill:#514E49;}
	.st66{fill:#DB3228;}
	.st67{fill:#D3C798;}
	.st68{fill:#A99C5E;}
	.st69{fill:#576972;}
	.st70{fill:#628593;}
	.st71{fill:#DDDFE1;}
	.st72{fill:#F6F6F4;}
	.st73{fill:#373631;}
	.st74{fill:#1A1A15;}
	.st75{fill:#FCFDFE;}
</style>
<g>
	<path class="st30" d="M409.3,95c14.5,14.4,28.8,28.8,43.1,43c-2.9,2.9-5.9,5.9-8.9,8.9c0,0-0.2-0.1-0.4-0.3
		c-5.9-5.2-11.2-10.9-16.8-16.4c-5.6-5.5-11.1-11-16.7-16.6c-0.2,0.1-0.6,0.2-0.8,0.3c-0.3,0.2-0.5,0.5-0.7,0.7
		c-7.2,7.2-14.3,14.5-21.7,21.5c-3.8,3.7-7.5,7.5-11.3,11c-3-3-6.1-6.1-9.2-9.2c1.4-1.4,2.8-2.8,4.2-4.2c1.4-1.4,2.9-2.9,4.3-4.3
		c1.5-1.5,3-2.9,4.4-4.4c1.4-1.4,2.9-2.9,4.3-4.3c1.4-1.4,2.9-2.9,4.3-4.3c1.4-1.4,2.9-2.9,4.3-4.3c1.4-1.4,2.9-2.9,4.3-4.3
		c1.5-1.5,3-2.9,4.4-4.4c1.4-1.4,2.8-3,4.4-4.3C406.6,97.7,408,96.3,409.3,95z"/>
	<path class="st31" d="M409.5,136.5c-3,3-5.8,6-8.8,8.7c-4.7,4.3-9.1,9-13.7,13.4c0,0-0.1,0-0.1,0c0,0-0.1,0-0.1,0
		c-2.9-2.9-5.8-5.8-8.9-8.8c0.1-0.2,0.2-0.5,0.4-0.8c0.1-0.2,0.3-0.3,0.4-0.4c10.1-10,20.1-20.1,30.2-30.1c0.1-0.1,0.2-0.2,0.3-0.3
		c0.2,0,0.4,0,0.6,0c10.1,10.1,20.3,20.2,30.4,30.3c0.4,0.4,0.9,0.6,0.8,1.2c-3,3-6,5.9-8.9,8.9c-2.3-2.3-4.6-4.7-7-7
		c-5.2-4.8-10.1-9.9-15.2-14.9C409.8,136.6,409.7,136.6,409.5,136.5z"/>
	<path class="st30" d="M429.5,160.9c-2.9,3.4-6.3,6.5-9.5,9.7c-3.2,3.2-6.4,6.4-9.6,9.6c-0.3,0.3-0.5,0.7-0.8,1.1
		c-0.2-0.1-0.4-0.3-0.6-0.5c-5-4.9-9.9-9.9-14.9-14.8c-1.6-1.6-3.2-3-4.8-4.5c0-0.3,0-0.6,0-0.8c3-3,5.9-5.9,9-8.9
		c0.2,0.2,0.5,0.4,0.7,0.6c2.2,2.2,4.4,4.4,6.5,6.5c1.3,1.3,2.6,2.5,3.8,3.6c0.2,0,0.3,0,0.3,0c0,0,0.1,0,0.1-0.1
		c3.6-3.5,7.1-7.1,10.6-10.6C423.4,154.8,426.4,157.8,429.5,160.9z"/>
	<path class="st32" d="M294.9,166.8c0.2,3.2-0.2,4.1-3.1,5.3c1.3,0.2,2.3,0.8,3.1,1.7c0.4,0.4,0.6,0.9,0.6,1.5c0,0.9,0,1.8,0,2.6
		c-0.7,1.2-1.6,2.2-2.9,2.6c-0.7,0.2-1.4,0.5-2.2,0.5c-2.9,0-5.9,0-8.9,0c0-5.8,0-11.7,0-17.6c2.9,0,5.8-0.1,8.7,0
		c1.2,0.1,2.4,0.5,3.3,1.2c0.3,0.2,0.5,0.6,0.7,0.9C294.5,166.1,294.7,166.5,294.9,166.8z M290.5,173.9c-1.9-0.5-3.5-0.5-5.1-0.4
		c0,1.7,0,3.3,0,5c1.5,0,2.9,0,4.2,0c0.5-0.3,1-0.5,1.3-0.7c0.4-0.8,0.9-1.5,0.6-2.6C291.2,174.8,290.8,174.3,290.5,173.9z
		 M291,169.3c0,0,0-0.2,0-0.4c0-1.5-0.4-1.9-1.9-2.3c-1.3-0.4-2.5-0.1-3.7-0.3c0,1.7,0,3.2,0,4.8c1.2-0.1,2.3,0,3.4-0.3
		C289.8,170.7,290.6,170.5,291,169.3z"/>
	<path class="st33" d="M333.5,181.5c-1.4,0-2.6,0-3.9,0c-0.2-0.4-0.6-0.9-0.6-1.3c0-0.9-0.4-1.7-0.4-2.5c0-0.6,0.1-1.2,0-1.8
		c-0.1-0.5-0.4-0.9-0.7-1.4c-0.5-0.4-1.2-0.4-1.9-0.4c-0.9,0-1.8,0-2.8,0c-0.1,2.3,0,4.7,0,7c-0.7,0.5-0.7,0.5-3.7,0.4
		c-0.1-0.1-0.2-0.2-0.4-0.4c0-5.7,0-11.5,0-17.4c0.3,0,0.7-0.1,1.1-0.1c2.3,0,4.6,0,6.9,0c1.2,0,2.3,0.2,3.3,0.6
		c2,0.8,3.3,2.8,2.5,5.2c-0.3,0.8-0.6,1.5-1.2,2c-0.6,0.4-1.4,0.7-2.2,1.1c0.4,0,0.9,0.1,1.3,0.1c0.8,0.5,1.2,1.4,1.7,2.3
		c0.1,0.4-0.1,1,0.1,1.6c0.2,0.5,0.1,1.1,0.2,1.7c0.1,0.5,0.2,1,0.3,1.5C333.3,180.3,333.4,180.8,333.5,181.5z M327.6,171.1
		c2.4-1.2,2.1-3.6,0-4.4c-1.6,0-3,0-4.5,0c0,1.5,0,2.9,0,4.4C324.6,171.1,326.1,171.1,327.6,171.1z"/>
	<path class="st34" d="M346.9,181.5c-0.9,0-1.8,0-2.7,0c-2.1,0.2-3.9-0.8-5.4-2c-1.4-1.1-2.1-2.7-2.4-4.5c-0.1-0.5-0.2-0.9-0.3-1.4
		c0-0.4,0-0.9,0-1.3c0-1.2,0.5-3.3,1.2-4.7c0.5-1.1,1.4-2,2.4-2.7c1.4-1.1,3.1-1.6,4.9-1.5c0.7,0,1.4,0,2.1,0
		c2.5,0.1,4.3,1.6,5.3,3.7c0.2,0.5,0.2,1,0.3,1.6c-0.1,0.1-0.2,0.2-0.4,0.4c-1.1,0-2.2,0-3.4,0c-0.7-1-1-2.2-2.8-2.7
		c-0.6,0.1-1.7,0.2-2.8,0.3c-0.3,0.3-0.5,0.7-0.8,0.9c-0.8,0.7-1.1,1.6-1.4,2.6c-0.3,1.1-0.4,2.2-0.3,3.3c0.1,1.4,0.6,2.6,1.4,3.7
		c0.8,1.1,2.1,1.6,3.4,1.8c0.8,0.1,1.6,0.2,2.4-0.2c0.2-0.1,0.5,0,0.8,0c0-1.4,0-2.7,0-4.1c-1.1,0-2.3,0-3.5,0c0-0.9,0-1.8,0-2.7
		c2.5,0,4.9,0,7.4,0c0,2.9,0,5.8,0,8.7c-0.2,0.9-1.1,0.2-1.6,0.7c-0.4,0.4-1.2-0.1-1.8,0.3C348.3,181.7,347.5,181.5,346.9,181.5z"/>
	<path class="st35" d="M254.9,181.5c-1,0-2,0-3,0c-2.6,0-4.8-1.3-6.3-3.4c-1-1.4-1.3-2.9-1.4-4.5c0-0.7,0-1.4,0-2.1
		c0.1-1.9,0.5-3.7,1.9-5.2c1-1.1,2.2-2.1,3.5-2.6c0.6-0.2,1.3-0.4,1.9-0.4c1.1-0.1,2.2-0.1,3.3,0c1.3,0.1,2.4,0.6,3.5,1.4
		c0.9,0.7,1.2,1.8,1.7,2.7c0.2,0.4,0,1,0,1.5c-1.3,0-2.5,0-3.8,0c-0.1-0.4-0.3-0.8-0.6-1.5c-0.3-0.3-0.9-0.7-1.4-1.1
		c-0.7,0-1.4,0-2,0c-0.8,0-1.8,0.7-2.4,1.3c-1.2,1.2-1.5,2.6-1.5,4.2c0,0.4,0,0.9,0,1.3c-0.1,2.1,0.9,3.7,2.4,4.9
		c0.6,0.5,1.6,0.6,2.4,0.7c0.6,0.1,1.3,0.2,2-0.2c0.3-0.2,0.8,0,1.2,0c0-1.4,0-2.8,0-4.2c-1.3,0-2.5,0-3.8,0c0-0.9,0-1.7,0-2.6
		c2.4,0,4.9,0,7.4,0c0,3,0,6,0,9.1C258.3,180.9,256.7,181.7,254.9,181.5z"/>
	<path class="st36" d="M309,181.5c-1.3,0-2.6,0-3.9,0c-2.3-0.1-4-1.2-5.1-3.2c-0.4-0.7-0.8-1.4-0.6-2.3c-0.6-2-0.2-4.1-0.3-6.1
		c-0.1-2.1,0-4.2,0-6.3c1.4,0,2.7,0,4.2,0c0,0.4,0,0.8,0,1.3c0,2.8,0.1,5.7,0,8.5c0,1,0.2,2,0.4,3c0.1,1,1,1.7,2,2.1
		c0.4,0.1,0.9,0.3,1.4,0.3c0.4,0,0.8-0.3,1.2-0.2c0.8,0.1,1-0.7,1.6-0.7c0.3-0.7,0.8-1.3,0.9-2.1c0-0.3,0-0.6,0-0.9
		c0-3.7,0-7.3,0-11.1c1.4,0,2.7,0,4.2,0c0,3.7,0.1,7.4,0,11.2c0,1.6-0.4,3.2-1.5,4.4C312.3,180.6,310.8,181.6,309,181.5z"/>
	<path class="st37" d="M349.7,141c-1.9,4.8-3.8,9.7-5.7,14.5c-0.8,0-1.5,0-2.3,0c-1.9-4.9-3.9-9.9-5.9-14.8c0,0-0.1,0-0.1,0
		c0,4.9,0,9.8,0,14.8c-0.7,0-1.4,0-2.1,0c0-5.8,0-11.6,0-17.4c1.2,0,2.4,0,3.7,0c1.8,4.7,3.7,9.5,5.7,14.4c1.9-4.9,3.7-9.7,5.5-14.5
		c1.3,0,2.5,0,3.8,0c0,5.8,0,11.6,0,17.5c-0.8,0-1.5,0-2.3,0c0-4.8,0-9.7,0-14.5C349.8,141,349.7,141,349.7,141z"/>
	<path class="st38" d="M234.9,181.5c-1.3,0-2.6,0-3.9,0c-2.4-0.3-3.6-0.9-5-3.1c-0.4-0.7-0.7-1.6-0.7-2.4c-0.1-4.1,0-8.2,0-12.4
		c1.3,0,2.5,0,3.9,0c0,0.3,0,0.7,0,1.1c0,2.2,0,4.4,0,6.6c0,1-0.1,2.1,0,3.1c0.1,0.9,0.4,1.8,0.6,2.8c0.7,1,1.7,1.5,2.9,1.6
		c2.2,0.1,3.5-0.8,4-3.1c0.2-0.9,0.3-1.8,0.3-2.7c0-3.1,0-6.1,0-9.3c1.3,0,2.5,0,3.9,0c0,3.6,0,7.1,0,10.7c0,1.4-0.4,2.7-0.9,3.9
		c-0.6,1.4-1.9,2.2-3.2,2.8C236.2,181.4,235.6,181.7,234.9,181.5z"/>
	<path class="st39" d="M271.6,181.5c-0.8,0-1.6,0-2.4,0c-2.1,0.1-3.7-0.9-4.9-2.4c-0.6-0.8-0.9-2-0.7-3.2c1.2,0,2.4,0,3.8,0
		c0.1,1.4,0.7,2.5,2.4,2.8c1.5,0.2,2.9-0.2,3.9-1.6c0-0.4,0-0.9,0-1.5c-0.7-1-1.8-1.4-3.1-1.7c-1.6-0.4-3.2-0.8-4.6-1.7
		c-2.3-1.5-2.5-3.5-1.8-5.7c0.3-0.9,1.9-2.3,2.9-2.6c1.9-0.7,3.8-0.8,5.7-0.6c1.3,0.2,2.7,0.6,3.6,1.8c0.3,0.5,0.6,1,0.9,1.5
		c0,0.6,0,1.1,0,1.7c-1.3,0-2.5,0-3.7,0c-0.3-0.5-0.5-1.1-0.8-1.6c-0.9-0.5-1.9-0.9-3.2-0.6c-0.4,0.3-0.9,0.7-1.5,1.1
		c0,0.6,0,1.1,0,1.6c0.7,1,1.9,1.3,3.1,1.6c1,0.3,2.1,0.5,3,1c1.3,0.5,2.5,1.3,3.3,2.5c0.1,0.6,0.4,1.3,0.4,2
		c0.1,1.9-0.9,3.3-2.3,4.4C274.4,181.1,273.1,181.6,271.6,181.5z"/>
	<path class="st40" d="M223.6,181.2c-1.5,0-2.9,0-4.4,0c-0.5-1.2-0.9-2.5-1.4-3.8c-2.5,0-5,0-7.5,0c-0.5,1.3-1,2.5-1.4,3.8
		c-1.1,0-2.4,0-3.6,0c-0.3-0.5,0-1,0.2-1.5c0.9-2,1.6-4,2.4-6c0.8-1.9,1.5-3.8,2.3-5.6c0.6-1.3,1.2-2.6,1.5-4c0-0.2,0.2-0.3,0.4-0.5
		c1.4,0,2.8,0,4.3,0C218.7,169.5,221.1,175.3,223.6,181.2z M211.2,174.5c1.4,0.2,4.4,0.2,5.5,0c-1-2.4-1.5-5-2.7-7.6
		C212.9,169.6,212,172,211.2,174.5z"/>
	<path class="st40" d="M274.1,155.6c-0.8,0-1.4,0-2.1,0c0-5.8,0-11.6,0-17.5c1,0,2,0,3.1,0c1.2,2,2.3,4.2,3.6,6.3
		c0.7,1.2,1.2,2.5,1.9,3.7c0.9,1.4,1.6,2.9,2.5,4.3c0.1,0.2,0.2,0.4,0.4,0.8c0-5.1,0-10,0-15c0.7,0,1.4,0,2.1,0c0,5.8,0,11.6,0,17.4
		c-1,0-2,0-3.1,0c-1-1.6-2-3.3-3-5c-0.5-0.8-0.9-1.6-1.3-2.4c-1-1.8-2.1-3.5-3-5.3c-0.3-0.6-0.7-1.1-1.1-1.8
		C274.1,145.9,274.1,150.7,274.1,155.6z"/>
	<path class="st39" d="M75.5,140.8c0,5,0,9.8,0,14.7c-0.7,0.2-1.4,0-2.1,0.1c0-5.9,0-11.7,0-17.5c1,0,2,0,3.1,0
		c1.2,2.1,2.4,4.2,3.7,6.4c1,1.8,2,3.5,3,5.3c0.5,0.9,1.1,1.9,1.7,3.2c0-5.2,0-10,0-14.8c0.7-0.2,1.4,0,2.1-0.1c0,5.9,0,11.7,0,17.5
		c-1,0-2.1,0-3.1,0C81.2,150.7,78.4,145.9,75.5,140.8z"/>
	<path class="st38" d="M131.6,138c2.6,0,5.1-0.1,7.6,0c1.2,0.1,2.5,0.4,3.4,1.4c1.2,1.3,1.4,2.7,0.9,4.3c-0.1,0.2,0,0.4-0.1,0.7
		c-0.8,0.7-1.4,1.7-3,2.1c1.7,0.2,2.2,1.3,2.7,2.5c-0.2,1,0.5,2.1,0.3,3.3c-0.2,1.1,0.5,2.1,0.6,3.2c-0.9,0-1.7,0-2.6,0
		c-0.3-0.7-0.3-1.6-0.5-2.4c-0.2-1-0.2-2-0.3-3c0-0.4-0.2-0.8-0.4-1.3c-0.1-0.1-0.4-0.4-0.6-0.6c-0.4-0.4-0.9-0.6-1.5-0.6
		c-1.4,0-2.8,0-4.3,0c0,2.7,0,5.3,0,8c-0.8,0-1.6,0-2.4,0C131.6,149.8,131.6,144,131.6,138z M141.4,142c-0.3-0.9-0.8-1.5-1.5-1.7
		c-0.6-0.2-1.2-0.4-1.8-0.4c-1.4-0.1-2.8,0-4.1,0c0,2,0,4,0,6c1.7-0.1,3.4,0.1,5-0.3c1.3-0.4,2.4-1.4,2.4-2.8
		C141.4,142.4,141.4,142.1,141.4,142z"/>
	<path class="st41" d="M54.2,138.1c0.9,0,1.8,0,2.7,0c0,0.7,0,1.5,0,2.2c0,2.6,0,5.2,0,7.7c0,1.3-0.2,2.6,0.4,4c0.5,0.5,1,1,1.3,1.3
		c1.2,0.7,2.3,0.5,3.4,0.6c1.8,0.1,3.9-1.3,3.9-4c0-3.4,0-6.8,0-10.3c0-0.5,0-1,0-1.5c0.9,0,1.7,0,2.7,0c0,0.3,0,0.7,0,1.1
		c0,3.3,0,6.5,0,9.8c0,1.4-0.4,2.7-1,3.9c-0.6,1.4-1.8,2.2-3.2,2.7c-0.6,0.2-1.1,0.5-1.8,0.3c-0.4-0.1-0.8,0.2-1.2,0.3
		c-0.4,0-0.8-0.2-1.2-0.3c-0.5-0.1-1-0.1-1.4-0.2c-0.4-0.1-0.8-0.3-1.2-0.4c-0.4-0.2-0.8-0.4-1.2-0.7c-0.4-0.3-0.7-0.6-0.9-0.9
		c-0.4-0.6-0.7-1.2-0.9-1.9c-0.3-1-0.3-2-0.3-3c0-3.3,0-6.5,0-9.8C54.2,138.7,54.2,138.4,54.2,138.1z"/>
	<path class="st41" d="M200.9,155.6c-1,0-1.9,0-2.8,0c-0.5-1.4-1.1-2.9-1.7-4.4c-2.7,0-5.4,0-8.3,0c-0.8,1.3-1.1,2.9-1.9,4.4
		c-0.7,0-1.4,0-2.3,0c0.1-0.3,0.1-0.6,0.2-0.9c0.7-1.9,1.6-3.7,2.2-5.6c0.3-0.8,0.6-1.5,0.9-2.3c0.9-1.9,1.6-3.8,2.3-5.7
		c0.4-1,0.8-1.9,1.3-3c0.9,0,1.8,0,2.8,0c0.1,0.3,0.3,0.6,0.4,1c0.6,1.8,1.5,3.5,2.2,5.3c0.3,0.9,0.8,1.8,1.1,2.6
		c0.4,0.8,1,1.6,1.1,2.5c0.2,1,0.8,1.7,1,2.6c0.2,1,0.9,2,1.4,3C200.9,155.2,200.8,155.4,200.9,155.6z M192.1,140.4
		c-0.1,0.1-0.3,0.2-0.3,0.3c-1,2.5-1.9,5-2.8,7.6c-0.1,0.2,0,0.5,0,0.7c2.2,0,4.4,0,6.5,0C194.3,146.1,193.2,143.3,192.1,140.4z"/>
	<path class="st42" d="M160,142.2c-1,0-1.8,0-2.7,0c0-0.4,0-0.7,0-0.8c-0.7-1.3-1.9-1.6-3-1.8c-1.1-0.2-2.2,0.4-3.2,0.9
		c-0.2,0.3-0.4,0.6-0.7,1.1c0,0.5,0,1.1,0,1.6c0.9,1.6,2.5,1.9,4,2.4c0.7,0.3,1.5,0.4,2.2,0.7c1.2,0.5,2.4,1.2,3.3,2.4
		c0.5,1,0.3,2.2,0.4,3.4c-0.5,0.8-0.8,1.6-1.5,2.2c-0.8,0.6-1.7,1.1-2.7,1.4c-1.3,0.4-2.5,0.4-3.8,0.2c-2.1-0.3-3.8-1-4.7-3.5
		c-0.1-0.4-0.1-0.9-0.2-1.4c0.2-0.1,0.3-0.1,0.4-0.1c0.6,0,1.3,0,2,0c0.2,0.4,0.3,0.9,0.6,1.6c0.4,0.3,0.9,0.9,1.6,1.2
		c0.7,0.3,1.4,0.7,2.2,0.5c0.7-0.2,1.4-0.4,2.2-0.6c0.4-0.4,0.8-0.8,1.2-1.2c0.3-1.2,0.3-1.5,0.1-2.4c-0.8-1.2-2.2-1.6-3.5-2
		c-1.3-0.4-2.7-0.7-3.9-1.5c-1.1-0.8-1.2-0.7-1.8-1.6c-0.6-0.8-0.9-1.8-0.6-2.7c0.2-0.6,0.1-1.2,0.5-1.7c0.4-0.4,0.7-0.9,1.2-1.3
		c0.6-0.6,1.4-0.9,2.2-1.1c1.2-0.4,2.3-0.3,3.5-0.2c1,0.1,2,0.4,2.9,0.9c0.8,0.6,1.5,1.4,1.8,2.4C159.9,141.4,159.9,141.7,160,142.2
		z"/>
	<path class="st33" d="M229.2,140.2c0.1,0.6,0.3,1.2,0.4,1.9c-0.9,0.1-1.6,0-2.5,0.1c-0.1-0.4-0.3-0.7-0.5-1.3
		c-0.4-0.3-0.9-0.9-1.5-1c-0.7-0.1-1.3-0.6-2.1-0.3c-1.7,0.6-1.7,0.5-3.1,1.9c0,0.3,0,0.6,0,0.9c0,0.3,0,0.6,0,0.7
		c1,1.6,2.6,1.9,4,2.4c0.7,0.2,1.5,0.5,2.2,0.7c1.3,0.5,2.3,1.3,3.2,2.4c0.2,0.7,0.4,1.5,0.4,2.3c0,1.7-0.8,2.9-2.1,3.8
		c-1.1,0.7-2.7,1.2-3.8,1.2c-0.4,0-0.9,0-1.3,0c-1.5,0.1-2.7-0.5-4-1.3c-0.3-0.2-0.5-0.7-0.7-1c-0.3-0.5-0.6-1-0.8-1.4
		c0-0.4,0-0.9,0-1.3c0.8,0,1.5,0,2.3,0c0.2,0.4,0.3,0.9,0.5,1.4c1.5,2.1,3.7,2.1,6.2,1c1.5-1.5,1.5-1.5,1.1-3.5
		c-0.8-1.2-2.2-1.6-3.5-2c-1.3-0.4-2.6-0.8-3.9-1.4c-1.5-0.7-2-1.9-2.5-3.3c-0.3-0.7,0.4-2.7,1-3.3c1.3-1.5,2.9-2.1,4.8-2.1
		c0.5,0,1.1,0,1.6,0c0.5,0,0.9,0.1,1.4,0.3c0.6,0.3,1.3,0.6,1.8,1C228.4,139.3,228.8,139.8,229.2,140.2z"/>
	<path class="st40" d="M326,138.1c0.8,0,1.6,0,2.4,0c0,0.4,0,0.7,0,1c0,3.6,0,7.2,0,10.9c0,2.6-1.3,4.3-3.6,5.5
		c-0.4,0.2-0.8,0.3-1.2,0.3c-2.2,0.2-4.5,0.6-6.6-0.8c-1.2-0.8-2.1-1.9-2.4-3.4c-0.2-0.9-0.3-1.8-0.3-2.7c0-3.6,0-7.1,0-10.8
		c0.8,0,1.5,0,2.4,0c0,1.4,0,2.8,0,4.3c0,2.1,0.1,4.3,0,6.4c0,0.8,0.2,1.6,0.4,2.4c0.2,1.3,1.7,2.2,3.1,2.7c1.4,0.5,2.5,0.1,3.6-0.4
		c1.5-0.6,2.2-1.9,2.2-3.5c0-3.7,0-7.3,0-11C326,138.7,326,138.4,326,138.1z"/>
	<path class="st38" d="M303.6,145.6c0,0.2,0,0.4,0,0.6c2.7,3,5.4,6.1,8.2,9.3c-1.2,0-2.2,0-3.2,0c-2.6-3-5.2-6.1-7.9-9.3
		c0,3.2,0,6.2,0,9.3c-0.8,0-1.6,0-2.4,0c0-5.8,0-11.6,0-17.5c0.7,0,1.5,0,2.4,0c0,2.5,0,5.1,0,7.7c1.7-1.7,3.4-3.3,4.8-5.1
		c0.8-1,1.7-1.8,2.4-2.6c1,0,1.9,0,3,0c-0.2,0.3-0.3,0.6-0.5,0.8C308.1,141.1,305.9,143.3,303.6,145.6z"/>
	<path class="st43" d="M118.8,145.5c2.7,0,5.3,0,7.8,0c0.8,0.6,0.3,1.3,0.6,2.1c-2.9,0-5.6,0-8.4,0c0,2.1,0,4.1,0,6.2
		c2.9,0,5.9,0,8.9,0c0,0.6,0,1.2,0,1.8c-3.7,0-7.4,0-11.2,0c0-5.8,0-11.6,0-17.5c3.6,0,7.2,0,10.9,0c0,0.6,0,1.1,0,1.7
		c-2.9,0-5.7,0-8.5,0C118.8,141.7,118.8,143.5,118.8,145.5z"/>
	<path class="st37" d="M106.8,155.6c-1,0-1.9,0-2.8,0c-0.4-1.1-0.8-2.2-1.2-3.3c-0.8-2.1-1.6-4.2-2.4-6.3c-0.7-1.8-1.3-3.6-2.1-5.4
		c-0.4-0.8-0.5-1.7-0.8-2.6c1,0,1.8,0,2.6,0c0.8,2.1,1.5,4.4,2.4,6.5c0.7,1.8,1.3,3.6,1.9,5.5c0.3,0.9,0.7,1.9,1.1,2.9
		c1.8-5,3.7-10,5.5-15c0.8,0,1.5,0,2.4,0c-0.1,0.3-0.1,0.6-0.2,0.9c-0.7,1.9-1.5,3.8-2.2,5.6c-0.4,0.9-0.6,2-1,2.9
		c-0.6,1.1-0.9,2.3-1.3,3.5c-0.4,1.2-1,2.3-1.3,3.5C107.3,154.8,107,155.2,106.8,155.6z"/>
	<path class="st33" d="M174.9,140.1c-1.9,0-3.6,0-5.4,0c0-0.7,0-1.3,0-2c4.5,0,9,0,13.6,0c0,0.5,0,1,0,1.6c-0.1,0.1-0.2,0.2-0.4,0.4
		c-1.7,0-3.4,0-5.2,0c0,5.1,0,10.2,0,15.4c-0.9,0-1.8,0-2.7,0C174.9,150.5,174.9,145.4,174.9,140.1z"/>
	<path class="st40" d="M201.5,139.9c0-0.7,0-1.2,0-1.8c4.5,0,9,0,13.6,0c0,0.5,0,1.1,0,1.7c-1.8,0-3.6,0-5.5,0c0,5.3,0,10.5,0,15.8
		c-0.8,0-1.6,0-2.4,0c0-5.2,0-10.4,0-15.7C205.3,139.9,203.4,139.9,201.5,139.9z"/>
	<path class="st39" d="M250.2,138.1c0.8,0,1.5,0,2.3,0c0,5.2,0,10.4,0,15.5c0.1,0.1,0.1,0.1,0.1,0.2c0,0,0.1,0.1,0.1,0.1
		c2.8,0,5.6,0,8.4,0c0,0.6,0,1.1,0,1.7c0,0,0,0-0.1,0c0,0-0.1,0-0.1,0c-3.6,0-7.1,0-10.8,0C250.2,149.8,250.2,144,250.2,138.1z"/>
	<path class="st32" d="M236.7,145.8c0.2-0.4,0.4-0.8,0.7-1.2c2-2.2,4.1-4.4,6.2-6.5c1,0,1.9,0,2.8,0c0.2,0.3-0.1,0.3-0.2,0.4
		c-0.1,0.2-0.3,0.3-0.4,0.4c-2.2,2.4-4.4,4.7-6.7,7.1c2.7,3.1,5.5,6.3,8.3,9.5c-0.5,0.2-1,0.1-1.6,0.1c-0.5,0-1.1,0-1.7,0
		c-2.5-3-5-6-7.6-8.9C236.7,146.4,236.7,146.1,236.7,145.8z"/>
	<path class="st44" d="M236.7,145.8c0,0.3,0,0.6,0,0.9c-0.5,0.1-0.3,0.4-0.3,0.7c0,2.3,0,4.6,0,6.8c0,0.4,0,0.9,0,1.4
		c-0.9,0-1.7,0-2.6,0c0-5.8,0-11.6,0-17.5c0.8,0,1.6,0,2.6,0c0,0.3,0,0.7,0,1.1c0,2,0,4.1,0,6.1
		C236.4,145.5,236.3,145.8,236.7,145.8z"/>
	<path class="st44" d="M164.2,138.1c0.9,0,1.7,0,2.6,0c0,5.8,0,11.6,0,17.5c-0.8,0.1-1.7,0-2.6,0C164.2,149.8,164.2,144,164.2,138.1
		z"/>
	<path class="st45" d="M293.1,155.6c-0.8,0-1.5,0-2.3,0c0-5.8,0-11.6,0-17.5c0.7-0.1,1.5,0,2.3,0
		C293.1,143.9,293.1,149.7,293.1,155.6z"/>
	<path class="st32" d="M266.8,138.1c0,5.8,0,11.6,0,17.5c-0.8,0-1.5,0-2.2,0c-0.2-1.2-0.3-12.8-0.1-17.5
		C265.2,138.1,266,138.1,266.8,138.1z"/>
	<path class="st32" d="M94.5,155.6c-0.8,0-1.5,0-2.3,0c0-5.8,0-11.6,0-17.5c0.7-0.1,1.5,0,2.3,0C94.5,143.9,94.5,149.7,94.5,155.6z"
		/>
	<path class="st44" d="M191.3,133.6c0,0.7,0,1.3,0,1.9c-0.2,0.2-0.3,0.3-0.4,0.4c-0.6,0-1.2,0-1.8,0c-0.1-0.1-0.3-0.3-0.4-0.4
		c0-0.6,0-1.2,0-1.9C189.5,133.6,190.3,133.6,191.3,133.6z"/>
	<path class="st32" d="M193.4,135.6c0-0.7,0-1.3,0-2c0.7,0,1.5,0,2.3,0c0,0.6,0,1.3,0,2C195,135.6,194.3,135.6,193.4,135.6z"/>
</g>
</svg>
