<?xml version="1.0" encoding="utf-8"?>
<!-- Generator: Adobe Illustrator 28.0.0, SVG Export Plug-In . SVG Version: 6.00 Build 0)  -->
<svg version="1.1" id="Layer_1" xmlns="http://www.w3.org/2000/svg" x="0px" y="0px"
	 viewBox="0 0 500 300" style="enable-background:new 0 0 500 300;" xml:space="preserve">
<style type="text/css">
	.st0{fill:#30BED2;}
	.st1{fill:#2EBED2;}
	.st2{fill:#4EC4D6;}
	.st3{fill:#66CAD9;}
	.st4{fill:#5BC7D8;}
	.st5{fill:#73CDDC;}
	.st6{fill:#41C2D5;}
	.st7{fill:#38C0D2;}
	.st8{fill:#62C9D9;}
	.st9{fill:#FAFCFD;}
	.st10{fill:#7BCFDD;}
	.st11{fill:#87D3E0;}
	.st12{fill:#90D5E2;}
	.st13{fill:#80D1DF;}
	.st14{fill:#A1DBE6;}
	.st15{fill:#A9DEE8;}
	.st16{fill:#B1E1E9;}
	.st17{fill:#E6753E;}
	.st18{fill:#F5A841;}
	.st19{fill:#EC863E;}
	.st20{fill:#BCE4EC;}
	.st21{fill:#F19C40;}
	.st22{fill:#EF9340;}
	.st23{fill:#F8BB47;}
	.st24{fill:#FAC55D;}
	.st25{fill:#FBCC70;}
	.st26{fill:#FBD07C;}
	.st27{fill:#FDD993;}
	.st28{fill:#FDDFA5;}
	.st29{fill:#E41954;}
	.st30{fill:#1A5783;}
	.st31{fill:#1B5783;}
	.st32{fill:#235985;}
	.st33{fill:#265A85;}
	.st34{fill:#225985;}
	.st35{fill:#225984;}
	.st36{fill:#275A86;}
	.st37{fill:#245985;}
	.st38{fill:#1F5884;}
	.st39{fill:#215884;}
	.st40{fill:#215984;}
	.st41{fill:#295B86;}
	.st42{fill:#265A86;}
	.st43{fill:#255A85;}
	.st44{fill:#2D5D87;}
	.st45{fill:#185682;}
	.st46{fill:#3491CE;}
	.st47{fill:#4696D1;}
	.st48{fill:#88847C;}
	.st49{fill:#8A846C;}
	.st50{fill:#F6D619;}
	.st51{fill:#686457;}
	.st52{fill:#BCAB58;}
	.st53{fill:#D8BF40;}
	.st54{fill:#CAB54C;}
	.st55{fill:#AF7245;}
	.st56{fill:#448FBA;}
	.st57{fill:#968C60;}
	.st58{fill:#EDCF26;}
	.st59{fill:#E4C832;}
	.st60{fill:#A59A6C;}
	.st61{fill:#827A5E;}
	.st62{fill:#A19B87;}
	.st63{fill:#F4DA5E;}
	.st64{fill:#79746E;}
	.st65{fill:#514E49;}
	.st66{fill:#DB3228;}
	.st67{fill:#D3C798;}
	.st68{fill:#A99C5E;}
	.st69{fill:#576972;}
	.st70{fill:#628593;}
	.st71{fill:#DDDFE1;}
	.st72{fill:#F6F6F4;}
	.st73{fill:#373631;}
	.st74{fill:#1A1A15;}
	.st75{fill:#FCFDFE;}
</style>
<g>
	<path class="st0" d="M142.1,124.3c0.2,0,0.4,0,0.6,0c3.4,0,6.8,0,10.2,0c2,0,4,0.3,5.8,1.2c2.1,1,3.6,2.6,4.3,4.9
		c1.1,3.4,1,6.9-0.4,10.2c-0.8,1.8-2.1,3.1-3.8,4.1c-0.2,0.1-0.4,0.2-0.6,0.3c0,0-0.1,0.1-0.1,0.2c2.3,4.7,4.5,9.4,6.9,14.2
		c-0.3,0-0.5,0-0.7,0.1c-1.8,0-3.6,0-5.4,0c-0.5,0-0.7-0.1-0.9-0.6c-1.9-4.1-3.7-8.1-5.6-12.2c-0.2-0.4-0.4-0.5-0.8-0.5
		c-1.2,0-2.3,0-3.5,0c0,4.4,0,8.7,0,13.1c-2,0-4,0-6,0C142.1,147.7,142.1,136,142.1,124.3z M148.1,140.5c1.7,0,3.3,0.1,5,0
		c2.5-0.2,4.1-1.6,4.6-3.9c0.1-0.3,0.1-0.7,0.2-1c0.1-2.8-0.7-5.1-4.2-5.5c-1.6-0.2-3.2-0.1-4.8-0.1c-0.3,0-0.5,0-0.8,0
		C148.1,133.5,148.1,137,148.1,140.5z"/>
	<path class="st1" d="M227.4,159.4c-2.2,0-4.3,0-6.4,0c-0.2,0-0.5-0.3-0.6-0.6c-1.4-3.1-2.8-6.1-4.2-9.2c-0.5-1-0.9-2-1.4-3
		c-0.1-0.2-0.3-0.4-0.5-0.4c-1.2,0-2.4,0-3.7,0c0,4.4,0,8.7,0,13.1c-2,0-4,0-6,0c0-11.6,0-23.3,0-35c0.2,0,0.4,0,0.6,0
		c3.4,0,6.7-0.1,10.1,0c1.4,0,2.9,0.2,4.3,0.6c3.3,0.9,5.3,3.1,6.1,6.4c0.7,2.9,0.6,5.8-0.4,8.6c-0.8,2.2-2.3,3.8-4.3,4.9
		c-0.1,0.1-0.3,0.2-0.5,0.3C222.8,149.8,225.1,154.5,227.4,159.4z M210.6,129.8c0,3.7,0,7.2,0,10.8c2-0.1,3.9,0,5.8-0.3
		c1.9-0.3,3.2-1.5,3.7-3.5c0.2-0.8,0.2-1.7,0.2-2.6c0-2.1-1.2-3.7-3.3-4C214.9,130,212.8,130,210.6,129.8z"/>
	<path class="st1" d="M297.5,142.4c0.1-4.5,0.6-8.3,2.4-11.8c2-3.8,5-6.2,9.2-6.7c5.2-0.7,9.7,1.5,12.4,6.2c1.4,2.5,2.1,5.2,2.5,8.1
		c0.5,4,0.2,8-0.9,11.8c-1.2,3.8-3.1,7-6.8,8.8c-5.1,2.6-12,1.4-15.7-4.6c-1.6-2.6-2.4-5.4-2.8-8.4
		C297.6,144.5,297.6,143.1,297.5,142.4z M303.6,141.8c0.1,1.1,0.1,2.2,0.2,3.3c0.3,2.3,0.9,4.5,2.3,6.5c2,2.7,5.6,3.3,8.2,1.2
		c1.4-1.1,2.2-2.7,2.7-4.4c1.1-3.6,1.2-7.3,0.6-10.9c-0.3-1.9-0.9-3.7-2.1-5.2c-1.7-2.2-4.4-3-7-2c-1.5,0.6-2.6,1.8-3.3,3.2
		C304,136,303.7,138.9,303.6,141.8z"/>
	<path class="st1" d="M273.5,145.8c-1.8,0-3.5,0-5.2,0c0-1.9,0-3.8,0-5.7c3.5,0,7,0,10.5,0c0,0.2,0,0.5,0,0.7c0,4.8,0,9.6,0,14.4
		c0,0.5-0.2,0.9-0.5,1.2c-2.5,2.3-5.4,3.5-8.7,3.6c-3.3,0.1-6.2-0.8-8.8-2.8c-2.4-1.9-3.9-4.4-4.8-7.2c-1.7-5.8-1.7-11.5,0.5-17.2
		c1.6-4.2,4.4-7.3,8.9-8.6c4.6-1.3,8.7-0.4,12.1,2.9c1,0.9,1,0.9,0.2,2c-0.8,1.1-1.6,2.3-2.4,3.4c-0.6-0.5-1.2-1.1-1.8-1.5
		c-3.5-2.5-8.2-1.5-10.5,2.3c-1.2,1.9-1.7,4-1.9,6.3c-0.3,2.9-0.1,5.7,0.8,8.5c1,2.9,2.8,4.9,5.9,5.6c1.8,0.4,3.5,0.3,5.1-0.6
		c0.4-0.3,0.6-0.6,0.6-1.1C273.5,150,273.5,148,273.5,145.8z"/>
	<path class="st1" d="M137.8,159.4c-2,0-3.9,0-5.9,0c-0.5,0-0.4-0.3-0.5-0.6c-0.6-2.6-1.2-5.1-1.8-7.7c-0.1-0.5-0.3-0.7-0.9-0.7
		c-2.7,0-5.5,0-8.2,0c-0.6,0-0.8,0.2-0.9,0.8c-0.6,2.6-1.2,5.1-1.8,7.7c0,0.2-0.3,0.5-0.4,0.5c-1.9,0-3.8,0-5.7,0
		c0.4-1.5,0.8-3,1.2-4.4c2.7-10,5.5-20.1,8.2-30.1c0.1-0.5,0.3-0.6,0.8-0.6c1.9,0,3.9,0,5.8,0c0.5,0,0.7,0.2,0.8,0.6
		c2.4,8.7,4.7,17.3,7.1,26c0.7,2.6,1.4,5.2,2.2,7.9C137.8,159,137.8,159.1,137.8,159.4z M124.7,129.8
		C124.7,129.8,124.7,129.8,124.7,129.8c-1.2,5-2.4,10.1-3.5,15.1c2.4,0,4.6,0,6.9,0C127,139.8,125.9,134.8,124.7,129.8z"/>
	<path class="st0" d="M188.6,159.3c-6.3,0-12.5,0-18.7,0c0-11.7,0-23.3,0-35c6.1,0,12.1,0,18.2,0c0,1.9,0,3.9,0,5.9
		c-4.1,0-8.1,0-12.2,0c0,2.7,0,5.3,0,8c3.5,0,6.9,0,10.4,0c0,2,0,3.9,0,5.9c-3.4,0-6.9,0-10.4,0c0,3.1,0,6.2,0,9.3
		c4.2,0,8.4,0,12.7,0C188.6,155.5,188.6,157.4,188.6,159.3z"/>
	<path class="st0" d="M250.5,124.3c0,2,0,3.9,0,5.9c-4.1,0-8.1,0-12.2,0c0,2.7,0,5.3,0,8c3.5,0,6.9,0,10.4,0c0,2,0,3.9,0,5.9
		c-3.4,0-6.9,0-10.4,0c0,3.1,0,6.2,0,9.3c0.2,0,0.5,0,0.7,0c3.8,0,7.5,0,11.3,0c0.6,0,0.7,0.2,0.7,0.7c0,1.5,0,3,0,4.5
		c0,0.2,0,0.4,0,0.7c-6.3,0-12.5,0-18.7,0c0-11.7,0-23.3,0-35C238.4,124.3,244.4,124.3,250.5,124.3z"/>
	<path class="st0" d="M430.8,145.4c0.1,1.5,0.2,3.1,0.3,4.6c0.1,1.8,0.3,3.6,0.2,5.4c-0.1,5.8-0.8,11.5-2.7,17.1
		c-1.6,4.6-3.9,8.8-7.5,12.2c-3.2,2.9-6.9,4.7-11.1,5.6c-3.2,0.6-6.5,0.7-9.7,0.3c-2.4-0.3-4.7-0.7-7-1.3c0.3-0.2,0.5-0.4,0.8-0.5
		c0.4-0.2,0.9-0.2,1.4-0.3c1-0.3,2-0.6,3-1c0.5-0.2,1.1-0.3,1.6-0.5c1.1-0.5,2.3-1,3.3-1.6c1.3-0.7,2.5-1.4,3.8-2.2
		c0.9-0.5,1.8-1.1,2.7-1.7c0.2-0.1,0.2-0.3,0.3-0.5c0.6-0.3,1.2-0.6,1.8-0.9c0,0,0.1-0.1,0.1-0.1c3.4-1.9,6.2-4.6,8.1-8
		c1.2-2,2-4.2,3-6.4c0.1-0.1,0.3-0.1,0.3-0.3c0.8-1.6,1.6-3.2,2.4-4.9c0.7-1.6,1.4-3.2,1.9-4.9c0.6-2.1,1.1-4.3,1.5-6.5
		c0.2-0.9,0.3-1.8,0.4-2.7c0.1-0.8,0.2-1.7,0.3-2.5c0-0.2,0.2-0.3,0.4-0.4c0,0.2,0,0.3,0,0.5c0,0.1,0,0.1,0.1,0.2c0,0.3,0,0.7,0.1,1
		C430.7,145.2,430.8,145.3,430.8,145.4z"/>
	<path class="st1" d="M105.6,132.6c-0.8-0.7-1.5-1.3-2.3-1.9c-3-1.9-6.6-1-8.8,2.1c-1.2,1.8-1.9,3.8-2.1,5.9
		c-0.4,3.1-0.3,6.2,0.6,9.2c0.6,1.9,1.5,3.6,3.1,4.8c2.3,1.7,5.5,1.6,7.9-0.3c0.7-0.6,1.3-1.2,2-1.9c0,0,0.2,0.1,0.2,0.2
		c0.9,1.2,1.8,2.5,2.7,3.7c0.1,0.2,0.1,0.5,0,0.7c-2.2,2.9-5,4.7-8.8,4.8c-5.7,0.2-10.2-3.2-12.4-8.6c-1-2.3-1.4-4.8-1.6-7.3
		c-0.3-3.7,0.1-7.2,1.3-10.7c1.4-3.8,3.7-6.9,7.5-8.7c4.3-1.9,8.8-1.3,12.3,2c0.4,0.4,0.8,0.7,1.1,1.2c0.1,0.1,0.1,0.5,0,0.6
		C107.5,129.9,106.6,131.3,105.6,132.6z"/>
	<path class="st2" d="M430.5,143.5c-0.1,0.1-0.3,0.3-0.4,0.4c-0.1,0.8-0.2,1.7-0.3,2.5c-0.1,0.9-0.2,1.8-0.4,2.7
		c-0.5,2.2-0.9,4.4-1.5,6.5c-0.5,1.7-1.2,3.3-1.9,4.9c-0.7,1.7-1.6,3.3-2.4,4.9c-0.1,0.1-0.2,0.2-0.3,0.3c0-0.2,0.1-0.4,0.1-0.6
		c1.3-4.1,1.9-8.3,2.1-12.5c0.1-1.8,0-3.6,0-5.5c0.1-0.1,0.2-0.2,0.2-0.2c0.2-1.9,0.4-3.8,0.5-5.7c0.1-1.8,0-3.5-0.1-5.3
		c-0.2-2-0.4-4-0.7-6c-0.3-1.5-0.7-3.1-1.2-4.6c-0.5-1.6-0.9-3.2-1.6-4.8c-0.9-2-1.9-3.9-2.9-5.8c-0.9-1.6-1.9-3.1-2.9-4.5
		c-0.9-1.3-1.9-2.5-2.9-3.6c-1-1.1-2.1-2.1-3.3-3.1c-1.2-1-2.4-2.1-3.6-2.9c-2.2-1.6-4.6-3-7.1-4c-2.3-1-4.7-1.8-7.1-2.4
		c-2.4-0.6-4.9-0.9-7.4-0.9c-1.9,0-3.8,0.1-5.7,0.1c-0.6,0-1.1,0.1-1.7,0.2c-1.5,0.3-3.1,0.7-4.6,1c-0.1,0-0.3-0.1-0.4-0.1
		c1.8-1.2,3.6-2.5,5.5-3.7c0.2-0.1,0.4-0.2,0.7-0.2c0.2,0.1,0.4,0.2,0.6,0.2c1.6,0,3.2-0.1,4.8-0.1c0.5,0,1-0.1,1.5-0.1
		c0.6,0,1.2,0.1,1.8,0.2c1.2,0.2,2.4,0.2,3.6,0.5c1.9,0.4,3.9,1,5.8,1.5c1.1,0.3,2.2,1,3.3,1.3c2,0.7,3.8,1.8,5.6,2.8
		c2.4,1.4,4.6,3.2,6.7,5.1c0.2,0.2,0.6,0.2,0.9,0.3c1,1.4,2,2.7,2.9,4.1c2.8,4.2,5.2,8.7,7.2,13.3c2.6,6,4.7,12.1,5.9,18.5
		C430,140,430.3,141.7,430.5,143.5z"/>
	<path class="st0" d="M291.5,159.3c-2,0-3.9,0-5.9,0c0-11.7,0-23.3,0-35c2,0,3.9,0,5.9,0C291.5,136,291.5,147.6,291.5,159.3z"/>
	<path class="st3" d="M379.2,184.5c-5.4-2.1-10.5-4.6-15.6-7.3c-2.2-1.2-4.4-2.5-6.6-3.7c-0.2-0.1-0.4-0.3-0.6-0.4
		c-0.1-0.2-0.1-0.5-0.2-0.7c-0.3-0.3-0.7-0.6-1-0.9c-0.8-0.9-1.6-1.9-2.4-2.8c-2.1-2.4-3.7-5.2-5.2-8c-0.1-0.1,0-0.3,0-0.5
		c0.2,0.2,0.3,0.3,0.5,0.5c2.1,2.4,4.5,4.5,7,6.3c4.2,3,8.7,5.4,13.4,7.5c8.5,3.7,17.2,6.5,26.4,8.1c-0.1,0.1-0.1,0.2-0.2,0.2
		c-1.2,0.3-2.4,0.6-3.7,0.8c-1.7,0.3-3.4,0.6-5.1,0.7c-1.3,0.1-2.7,0-4,0c-0.8,0-1.6-0.1-2.5-0.2
		C379.5,184.1,379.3,184.3,379.2,184.5z"/>
	<path class="st4" d="M372.9,94.4c0.1,0,0.3,0.2,0.4,0.1c1.5-0.3,3.1-0.7,4.6-1c0.6-0.1,1.1-0.2,1.7-0.2c1.9-0.1,3.8-0.1,5.7-0.1
		c2.5,0,5,0.3,7.4,0.9c2.4,0.6,4.8,1.5,7.1,2.4c2.5,1.1,4.9,2.4,7.1,4c1.3,0.9,2.5,1.9,3.6,2.9c1.1,1,2.2,2,3.3,3.1
		c1.1,1.1,2,2.4,2.9,3.6c1,1.5,2,3,2.9,4.5c1.1,1.9,2.1,3.8,2.9,5.8c0.7,1.5,1.1,3.2,1.6,4.8c0.4,1.5,0.9,3,1.2,4.6
		c0.3,2,0.6,4,0.7,6c0.1,1.7,0.2,3.5,0.1,5.3c-0.1,1.9-0.3,3.8-0.5,5.7c0,0.1-0.2,0.2-0.2,0.2c-0.1-1.3-0.2-2.7-0.3-4
		c-0.3-2.3-0.7-4.5-1-6.8c0.1-0.2,0.2-0.4,0.2-0.6c-0.1-0.7-0.2-1.4-0.2-2c-0.2-1.2-0.3-2.5-0.5-3.7c-0.2-1.2-0.5-2.4-0.8-3.6
		c-0.4-1.5-0.9-3-1.5-4.4c-0.5-1.3-1.1-2.5-1.6-3.7c-0.1-0.2-0.2-0.5-0.3-0.7c-0.8-1.2-1.6-2.5-2.3-3.7c-0.6-0.9-1.1-1.8-1.7-2.6
		c-0.6-0.9-1.3-1.8-2.1-2.6c-1-1.1-2.2-2.2-3.3-3.2c-0.4-0.3-0.9-0.5-1.3-0.8c-0.2-0.2-0.4-0.3-0.6-0.5c-1.4-1.3-2.8-2.7-4.3-3.8
		c-4.7-3.6-9.9-5.7-16-5.2c-1.7,0.1-3.3,0.5-4.9,1c-1.7,0.5-3.4,1.4-5,2.1c-0.5,0-1,0-1.5,0.1c-0.9,0.2-1.8,0.5-2.7,0.8
		c-1.4,0.5-2.8,1-4.2,1.6c-1.6,0.7-3.2,1.5-4.8,2.3c-0.3,0.2-0.5,0.4-0.9,0.2c1.7-1.8,3.3-3.6,5-5.3
		C370.1,96.7,371.5,95.6,372.9,94.4z"/>
	<path class="st5" d="M363.8,103.3c0.4,0.2,0.6-0.1,0.9-0.2c1.6-0.8,3.2-1.6,4.8-2.3c1.4-0.6,2.8-1.1,4.2-1.6
		c0.9-0.3,1.8-0.6,2.7-0.8c0.5-0.1,1-0.1,1.5-0.1c-1.2,0.8-2.5,1.5-3.7,2.4c-5.1,3.8-9.6,8.2-13.8,13c-3.5,3.9-6.7,8-9.5,12.5
		c-1.6,2.7-3,5.5-4.6,8.2c0-0.1-0.1-0.1-0.1-0.2c0.3-1.7,0.6-3.3,1-5c0.1-0.7,0.2-1.3,0.4-2c0.2-0.7,0.5-1.3,0.7-1.9
		c0.1-0.3-0.1-0.6-0.1-0.9c1.2-1.9,2.3-3.8,3.5-5.6c2.9-4.5,6.1-8.7,9.5-12.8C362.2,105.1,363,104.2,363.8,103.3z"/>
	<path class="st2" d="M347.8,160.1c0,0.2-0.1,0.4,0,0.5c1.5,2.8,3.1,5.6,5.2,8c0.8,0.9,1.6,1.9,2.4,2.8c0.3,0.3,0.7,0.6,1,0.9
		c0.1,0.2,0.1,0.4,0.2,0.7c-1.5-0.9-2.9-1.7-4.4-2.6c-1.9-1.2-3.7-2.4-5.6-3.6c-0.2-0.1-0.3-0.3-0.5-0.4c0.1-0.2,0.2-0.3,0.2-0.4
		c-0.1-0.2-0.4-0.4-0.5-0.7c-1-2.1-2.1-4.1-3-6.2c-0.7-1.7-1.2-3.4-1.7-5.1c-0.4-1.3-0.7-2.6-1-4c-0.2-1.1-0.4-2.2-0.5-3.3
		c-0.2-1.3-0.3-2.7-0.5-4c0-0.2-0.3-0.3-0.5-0.5c0.7-1.5,1.4-3.1,2.2-4.6c0.5-1.1,1.2-2.1,1.8-3.1c0.1,0.1,0.2,0.2,0.2,0.3
		c0,0.8-0.1,1.5-0.1,2.3c0.1,2.8,0.1,5.7,0.3,8.5c0,0.4,0.3,0.8,0.4,1.1c0,0.3,0,0.6,0,1c-0.1,3.3,0.7,6.3,2.4,9.1
		C346.2,158,347,159,347.8,160.1z"/>
	<path class="st2" d="M379.2,184.5c0.1-0.1,0.3-0.4,0.4-0.4c0.8,0,1.6,0.1,2.5,0.2c1.3,0,2.7,0.1,4,0c1.7-0.1,3.4-0.4,5.1-0.7
		c1.2-0.2,2.4-0.6,3.7-0.8c0.1,0,0.2-0.1,0.2-0.2c0.8,0.1,1.6,0.2,2.4,0.2c2.7,0.2,5.4,0.2,8.1-0.4c1.6-0.3,3.1-0.9,4.7-1.4
		c-0.1,0.2-0.2,0.4-0.3,0.5c-0.9,0.6-1.8,1.2-2.7,1.7c-1.3,0.7-2.5,1.5-3.8,2.2c-1.1,0.6-2.2,1.1-3.3,1.6c-0.5,0.2-1.1,0.4-1.6,0.5
		c-1,0.3-2,0.7-3,1c-0.4,0.1-0.9,0.2-1.4,0.3c-0.3,0.1-0.6,0.3-0.8,0.5c-3.1-1-6.3-2-9.4-3C382.3,185.7,380.8,185.1,379.2,184.5z"/>
	<path class="st6" d="M413.7,102.2c-0.3-0.1-0.7-0.1-0.9-0.3c-2.1-1.9-4.2-3.7-6.7-5.1c-1.8-1-3.6-2.2-5.6-2.8
		c-1.1-0.4-2.2-1-3.3-1.3c-1.9-0.6-3.8-1.1-5.8-1.5c-1.2-0.3-2.4-0.3-3.6-0.5c-0.6-0.1-1.2-0.2-1.8-0.2c-0.5,0-1,0.1-1.5,0.1
		c-1.6,0.1-3.2,0.1-4.8,0.1c-0.2,0-0.4-0.1-0.6-0.2c1.3-0.6,2.5-1.2,3.8-1.6c2.5-0.8,5.1-1.2,7.7-1.1c4.2,0.2,8,1.6,11.6,3.7
		c3.7,2.3,6.9,5.2,9.7,8.5C412.4,100.7,413,101.5,413.7,102.2z"/>
	<path class="st6" d="M338.4,142.2c0.2,0.2,0.5,0.3,0.5,0.5c0.2,1.3,0.4,2.7,0.5,4c0.2,1.1,0.3,2.2,0.5,3.3c0.3,1.3,0.6,2.7,1,4
		c0.5,1.7,1,3.5,1.7,5.1c0.9,2.1,2,4.2,3,6.2c0.1,0.2,0.4,0.4,0.5,0.7c0,0.1-0.1,0.3-0.2,0.4c-3.8-2.6-7.1-5.6-9-9.9
		c-0.9-2.2-1.1-4.5-0.8-6.9C336.5,147.1,337.3,144.6,338.4,142.2z"/>
	<path class="st6" d="M175,180.1c-0.5,0-0.9,0-1.4,0c0-0.4,0-0.8,0-1.2c0-1.5,0-3,0-4.4c0-1.4-0.4-1.9-1.5-1.9c-1.2,0-2,0.7-2,2
		c0,1.7,0,3.4,0,5.1c0,0.1,0,0.3,0,0.4c-0.5,0-0.9,0-1.5,0c0-0.2,0-0.5,0-0.7c0-1.4,0-2.8,0-4.3c0-0.3,0-0.6,0-0.9
		c-0.1-1.2-0.5-1.7-1.6-1.7c-1.1,0-1.9,0.8-1.9,1.8c0,1.6,0,3.3,0,4.9c0,0.2,0,0.5,0,0.8c-0.5,0-1,0-1.5,0c0-2.8,0-5.7,0-8.5
		c0.9-0.2,0.9-0.2,1.3,0.8c1.8-1.7,4-1.5,4.9,0.1c0.9-1,2-1.4,3.4-1.2c0.9,0.2,1.4,0.7,1.7,1.5c0.1,0.5,0.2,1.1,0.2,1.6
		c0,1.8,0,3.6,0,5.3C175,179.9,175,180,175,180.1z"/>
	<path class="st7" d="M107.5,171.6c0.9-0.4,1.1,0.2,1.2,0.9c1.5-1.6,3.9-1.7,4.9,0c0.6-0.7,1.3-1.1,2.2-1.2c1.7-0.2,2.9,0.5,3,2.2
		c0.1,2.2,0,4.4,0,6.6c-0.4,0-0.9,0-1.4,0c0-0.2,0-0.5,0-0.7c0-1.6,0-3.2,0-4.8c0-1.5-0.4-2.1-1.5-2.1c-1.2,0-2,0.9-2.1,2.2
		c0,1.6,0,3.2,0,4.8c0,0.2,0,0.3,0,0.5c-0.4,0-0.9,0-1.4,0c0-0.2,0-0.5,0-0.7c0-1.4,0-2.9,0-4.3c0-0.2,0-0.4,0-0.6
		c-0.1-1.3-0.5-1.9-1.6-1.9c-1,0-2,0.9-2,2c0,1.6,0,3.2,0,4.8c0,0.2,0,0.5,0,0.7c-0.5,0-0.9,0-1.4,0
		C107.5,177.2,107.5,174.4,107.5,171.6z"/>
	<path class="st7" d="M88.6,183.3c0.1-0.4,0.2-0.8,0.3-1c1,0.1,1.9,0.2,2.9,0.2c1.1,0,1.6-0.6,1.6-1.7c0-0.4,0-0.8,0-1.2
		c-0.5,0.2-1,0.5-1.6,0.7c-2,0.4-3.4-0.5-3.9-2.5c-0.3-1.2-0.3-2.5,0-3.7c0.4-1.6,1.5-2.5,3.1-2.6c1.1-0.1,2.2,0.2,3.4,0.3
		c0.4,0,0.5,0.3,0.5,0.6c0,2.8,0,5.5,0,8.3c0,1.8-1,2.9-2.8,3.1C90.9,183.9,89.8,183.8,88.6,183.3z M93.4,175.3c0-0.6,0-1.3,0-1.9
		c0-0.2-0.1-0.5-0.2-0.5c-1.2-0.7-3.1-0.1-3.6,1.1c-0.5,1.3-0.5,2.7,0.1,4c0.4,0.9,1.2,1.3,2.2,1.1c1-0.2,1.6-0.9,1.6-1.9
		C93.4,176.6,93.4,175.9,93.4,175.3z"/>
	<path class="st0" d="M284.5,183.3c0-0.2,0.1-0.3,0.1-0.4c0.2-0.8,0.2-0.7,1-0.6c0.8,0.1,1.7,0.1,2.5,0.1c0.7-0.1,1.1-0.7,1.2-1.6
		c0-0.4,0-0.9,0-1.4c-0.8,0.8-1.7,1.1-2.7,1c-1.7-0.2-2.6-1-2.9-2.8c-0.1-1.1-0.2-2.2,0-3.2c0.3-1.8,1.4-2.8,3.2-2.9
		c1.1-0.1,2.2,0.2,3.3,0.3c0.3,0,0.5,0.2,0.5,0.6c0,2.9,0,5.8,0,8.7c0,1.4-0.8,2.3-2.1,2.6C287.3,183.9,285.9,183.9,284.5,183.3z
		 M289.4,175.3c0-0.6,0-1.3,0-1.9c0-0.2-0.1-0.4-0.2-0.5c-1.1-0.8-3.2-0.1-3.7,1.1c-0.5,1.3-0.5,2.6,0,3.9c0.4,1,1.3,1.4,2.2,1.2
		c1-0.2,1.6-1,1.6-2C289.4,176.5,289.4,175.9,289.4,175.3z"/>
	<path class="st8" d="M343.1,146.7c-0.2-0.4-0.4-0.7-0.4-1.1c-0.1-2.8-0.2-5.7-0.3-8.5c0-0.8,0.1-1.5,0.1-2.3c0-0.1-0.1-0.2-0.2-0.3
		c1-1.8,2.1-3.7,3.1-5.5c0.9-1.5,1.9-3.1,2.8-4.6c0,0.3,0.2,0.6,0.1,0.9c-0.2,0.7-0.5,1.3-0.7,1.9c-0.2,0.6-0.3,1.3-0.4,2
		c-0.3,1.7-0.7,3.3-1,5c0,0,0.1,0.1,0.1,0.2c0,0.1,0,0.1,0,0.2C344.6,138.4,343.4,142.5,343.1,146.7z"/>
	<path class="st7" d="M276.1,180.1c-1,0.4-1-0.5-1.2-1.1c-0.7,1-1.7,1.5-2.9,1.3c-1.6-0.2-2.5-1-2.8-2.6c-0.3-1.2-0.3-2.5,0-3.7
		c0.4-1.7,1.8-2.7,3.5-2.7c0.7,0,1.3,0.1,2.1,0.1c0-1.1,0-2.2,0-3.4c0.5,0,0.9,0,1.4,0C276.1,172.1,276.1,176.1,276.1,180.1z
		 M274.7,175.3c0-0.6,0-1.2,0-1.8c0-0.2-0.1-0.5-0.3-0.6c-1.3-0.9-3.5-0.1-3.8,1.4c-0.2,1-0.1,2.1,0,3.2c0.2,1.1,1.2,1.7,2.3,1.6
		c1-0.1,1.7-1,1.7-2.1C274.7,176.4,274.7,175.9,274.7,175.3z"/>
	<path class="st7" d="M123.2,176c0,1.1,0.1,2,1,2.6c1.2,0.9,2.5,0.6,3.8-0.1c0.7,0.9,0.7,1.2-0.4,1.5c-0.9,0.2-1.9,0.4-2.8,0.3
		c-1.5-0.1-2.5-1.1-2.9-2.6c-0.4-1.5-0.4-3.1,0.3-4.5c0.7-1.5,2.1-2,3.6-1.9c1.2,0.1,2.1,0.4,2.7,1.5c0.4,0.9,0.4,1.9,0.3,2.8
		c0,0.1-0.4,0.3-0.6,0.3c-1.4,0-2.8,0-4.2,0C123.7,176,123.5,176,123.2,176z M127.3,174.8c0-0.8,0-1.6-0.8-2
		c-0.8-0.5-1.7-0.4-2.4,0.1c-0.7,0.4-0.9,1.1-0.9,1.9C124.6,174.8,125.9,174.8,127.3,174.8z"/>
	<path class="st7" d="M99.2,176c0,1.1,0.1,2,1,2.6c1.3,0.8,2.5,0.6,3.8-0.1c0.7,1,0.7,1.2-0.4,1.5c-0.6,0.2-1.3,0.4-2,0.4
		c-2,0-3.3-1.1-3.7-3.1c-0.2-1.4-0.2-2.7,0.4-4c0.6-1.3,2-2.1,3.5-2c0.9,0.1,1.8,0.2,2.5,1c0.8,1,0.7,2.2,0.6,3.4
		c0,0.1-0.3,0.3-0.5,0.3c-1.4,0-2.8,0-4.2,0C99.7,176,99.5,176,99.2,176z M103.3,174.8c0-0.8,0-1.6-0.8-2c-0.9-0.5-1.7-0.4-2.6,0.1
		c-0.6,0.4-0.8,1.1-0.8,1.9C100.6,174.8,101.9,174.8,103.3,174.8z"/>
	<path class="st7" d="M211.8,175.7c0.2-0.8,0.3-1.7,0.7-2.6c0.6-1.3,2.1-2,3.5-1.9c2.6,0.2,3.4,2,3.5,4.2c0.1,1.3-0.1,2.5-0.9,3.6
		c-0.9,1.1-2.1,1.4-3.4,1.3c-1.4-0.1-2.4-0.8-2.9-2.2C212.1,177.4,212,176.6,211.8,175.7z M218.2,175.8c-0.2-0.7-0.3-1.5-0.6-2.2
		c-0.7-1.4-2.9-1.5-3.6-0.1c-0.8,1.5-0.7,3.1,0.1,4.7c0.4,0.7,1.2,1,2,0.9c0.8-0.1,1.4-0.4,1.6-1.2
		C217.9,177.3,218,176.6,218.2,175.8z"/>
	<path class="st7" d="M160.3,180.1c-0.8,0.1-0.8,0.1-1.4-1.2c-0.1,0.2-0.1,0.5-0.3,0.6c-1.3,1.2-3.6,1-4.4-0.4
		c-0.8-1.3-0.3-3.1,1.1-3.5c0.9-0.3,1.9-0.3,2.8-0.5c0.2,0,0.5,0,0.8,0c0-0.6,0.1-1.1,0-1.6c-0.1-0.6-0.6-0.9-1.2-0.8
		c-1,0.1-1.9,0.2-3,0.4c-0.1-0.2-0.2-0.5-0.4-0.9c0.4-0.2,0.8-0.4,1.2-0.5c1.1-0.1,2.1-0.3,3.2-0.2c1.1,0.1,1.7,0.9,1.7,2.1
		c0,1.3,0,2.7,0,4C160.3,178.4,160.3,179.2,160.3,180.1z M158.8,176.2c-0.9,0.1-1.8,0.2-2.7,0.4c-0.7,0.2-1,0.7-1,1.3
		c0.1,0.6,0.6,1.1,1.3,1.2C158.3,179.1,159.2,178.1,158.8,176.2z"/>
	<path class="st7" d="M311.7,180.1c-0.7,0.1-0.7,0.1-1.2-1.1c-1,1.2-2.3,1.5-3.7,1.1c-1-0.3-1.6-1.1-1.6-2.2c-0.1-1.1,0.4-2,1.5-2.3
		c0.9-0.3,1.9-0.4,2.9-0.5c0.3,0,0.5,0,0.9,0c0-0.5,0.1-1,0-1.4c-0.1-0.7-0.5-1.1-1.3-1.1c-1,0-1.9,0.2-3,0.4
		c-0.6-0.7-0.5-1,0.5-1.3c1-0.2,2-0.4,3-0.4c1.4,0,2.2,1,2.2,2.5c0,1.1-0.1,2.3-0.1,3.4C311.7,178.2,311.7,179.1,311.7,180.1z
		 M309.4,176.1c-0.7,0.2-1.4,0.2-2,0.5c-0.9,0.4-0.9,1.6-0.1,2.1c1,0.6,2.7,0,3.1-1.1C310.7,176.8,310.4,176.3,309.4,176.1z"/>
	<path class="st7" d="M237.3,180.1c-0.9,0.1-0.9,0.1-1.3-1.1c-1,1.1-2.2,1.5-3.6,1.1c-1.1-0.3-1.7-1.1-1.8-2.2
		c-0.1-1.1,0.4-2,1.5-2.4c0.9-0.3,1.9-0.3,2.8-0.5c0.3,0,0.5,0,0.9,0c0-0.5,0.1-0.9,0-1.4c-0.1-0.7-0.5-1.1-1.3-1.1
		c-1,0.1-1.9,0.2-3,0.4c-0.6-0.7-0.5-1,0.5-1.3c1-0.2,2-0.4,3-0.4c1.4,0,2.2,1,2.2,2.5c0,1.2-0.1,2.4-0.1,3.5
		C237.1,178.3,237.2,179.2,237.3,180.1z M235.9,177c-0.1-0.2-0.2-0.7-0.3-0.7c-1-0.1-2.1-0.2-3,0.4c-0.8,0.5-0.7,1.7,0.1,2.1
		c0.7,0.4,1.5,0.3,2.2-0.1C235.5,178.3,235.9,177.8,235.9,177z"/>
	<path class="st7" d="M209.3,180.1c-0.4,0-0.9,0-1.4,0c0-1.7,0-3.3,0-5c0-0.5-0.1-0.9-0.2-1.4c-0.2-0.8-0.6-1.1-1.4-1.1
		c-1.5-0.1-2.4,0.8-2.4,2.3c0,1.5,0,3,0,4.5c0,0.2,0,0.4,0,0.7c-0.5,0-0.9,0-1.4,0c0-2.8,0-5.7,0-8.5c1-0.2,1-0.2,1.3,0.9
		c0.7-0.7,1.5-1.2,2.5-1.2c2-0.1,3,0.6,3.1,2.4c0.2,2.1,0.1,4.1,0.1,6.2C209.3,180,209.3,180,209.3,180.1z"/>
	<path class="st7" d="M136.4,171.6c0.8-0.3,1.1,0.1,1.2,0.9c0.2-0.1,0.3-0.2,0.4-0.3c1.1-0.9,2.3-1,3.6-0.7c1.1,0.3,1.5,1.1,1.6,2.2
		c0.1,1,0.1,1.9,0.1,2.9c0,1.2,0,2.4,0,3.6c-0.5,0-0.9,0-1.4,0c0-0.2,0-0.4,0-0.6c0-1.7,0-3.4-0.1-5.1c-0.1-1.3-0.7-1.9-1.8-1.8
		c-1.2,0.1-2.2,1-2.2,2.1c0,1.6,0,3.2,0,4.8c0,0.2,0,0.4,0,0.7c-0.5,0-0.9,0-1.4,0C136.4,177.3,136.4,174.4,136.4,171.6z"/>
	<path class="st7" d="M199.4,180.1c-0.5,0-0.9,0-1.4,0c0-0.2,0-0.4,0-0.7c0-1.7,0-3.3-0.1-5c-0.1-1.3-0.7-1.9-1.8-1.9
		c-1.2,0-2.2,1-2.2,2.1c0,1.8,0,3.6,0,5.5c-0.5,0-0.9,0-1.4,0c0-2.8,0-5.7,0-8.5c0.9-0.2,0.9-0.2,1.2,0.9c0.7-0.7,1.5-1.1,2.5-1.2
		c1.7,0,2.8,0.3,3,2C199.4,175.6,199.3,177.8,199.4,180.1z"/>
	<path class="st7" d="M146.1,178.7c0.9,0.2,1.7,0.4,2.5,0.4c0.4,0,0.8-0.1,1.1-0.3c0.7-0.5,0.6-1.5-0.2-1.9
		c-0.6-0.3-1.2-0.5-1.8-0.8c-1.3-0.6-1.7-1.2-1.7-2.6c0-1,0.6-1.7,1.6-1.9c1.2-0.3,2.3-0.1,3.4,0.3c0.1,0.1,0.3,0.3,0.3,0.5
		c0,0.2-0.1,0.5-0.2,0.8c-0.6-0.1-1.1-0.3-1.6-0.4c-0.4-0.1-0.9,0-1.3,0.1c-0.3,0.1-0.6,0.4-0.7,0.7c-0.1,0.4-0.1,0.8,0.3,1.1
		c0.6,0.3,1.2,0.5,1.7,0.8c0.9,0.4,1.7,0.9,1.9,1.9c0.3,1.5-0.4,2.8-1.9,3.1c-1.1,0.3-2.1,0.1-3.2-0.2c-0.8-0.2-0.8-0.3-0.5-1
		C146,178.8,146.1,178.7,146.1,178.7z"/>
	<path class="st7" d="M298,172.7c0-0.4,0-0.8,0-1.2c0.4,0,0.8-0.1,1.3-0.1c-0.1-1-0.2-2.1,1.4-2c0,0.6,0,1.3,0,2c0.8,0,1.6,0,2.3,0
		c0,0.5,0,0.8,0,1.3c-0.8,0-1.5,0-2.3,0c0,0.5,0,0.9,0,1.3c0,1.2,0,2.4,0,3.7c0,1.2,0.5,1.6,1.7,1.2c0.2-0.1,0.4-0.1,0.7-0.2
		c0.1,0.3,0.2,0.7,0.3,1.1c-0.9,0.4-1.7,0.6-2.7,0.5c-0.9-0.1-1.4-0.6-1.4-1.6c-0.1-1.9-0.1-3.7-0.1-5.6c0-0.1,0-0.2,0-0.3
		C298.8,172.8,298.4,172.8,298,172.7z"/>
	<path class="st7" d="M221,171.6c0.1,0,0.1,0,0.1,0c1.5-0.1,1.5-0.1,2,1.2c0.7,1.7,1.4,3.4,2,5c0.6-1.7,1.3-3.4,1.9-5.1
		c0.5-1.2,0.5-1.2,1.9-1.1c-0.2,0.4-0.3,0.8-0.5,1.2c-1,2.4-2,4.7-3,7.1c-0.1,0.2-0.3,0.4-0.5,0.6c-0.2-0.2-0.5-0.3-0.6-0.6
		c-1.1-2.5-2.1-5-3.2-7.5C221.2,172.1,221.1,171.8,221,171.6z"/>
	<path class="st7" d="M255.2,177.7c0.6-1.7,1.3-3.4,2-5.2c0.5-1.2,0.5-1.2,1.9-1c-0.4,1-0.8,2.1-1.3,3.1c-0.7,1.7-1.4,3.4-2.2,5.2
		c-0.1,0.2-0.3,0.5-0.5,0.5c-0.1,0-0.4-0.3-0.5-0.5c-1.1-2.6-2.2-5.2-3.4-7.9c-0.1-0.1-0.1-0.3-0.1-0.5c0.5,0,0.9,0,1.3,0
		c0.2,0,0.4,0.2,0.4,0.4C253.7,173.9,254.5,175.9,255.2,177.7z"/>
	<path class="st0" d="M240.7,172.8c-0.5,0-0.9,0-1.3-0.1c0-0.4,0-0.8,0-1.2c0.4,0,0.8,0,1.2-0.1c0-0.2,0-0.3,0-0.5
		c0-1.3,0-1.3,1.4-1.5c0,0.6,0,1.3,0,2c0.8,0,1.5,0,2.3,0c0,0.5,0,0.8,0,1.3c-0.7,0-1.5,0-2.3,0c0,1.8-0.1,3.6,0,5.3
		c0,1,0.7,1.3,1.8,0.9c0.5-0.2,0.7-0.1,0.8,0.4c0.1,0.4,0,0.6-0.4,0.7c-0.8,0.1-1.5,0.2-2.3,0.2c-0.7,0-1.2-0.6-1.2-1.3
		c-0.1-1-0.1-1.9-0.1-2.9C240.7,175,240.7,174,240.7,172.8z"/>
	<path class="st7" d="M315,168.1c0.5,0,0.9,0,1.4,0c0,0.3,0,0.5,0,0.7c0,2.9,0,5.9,0,8.8c0,1.4,0.3,1.6,1.6,1.4c0.1,0,0.1,0,0.2,0
		c0.1,0.3,0.1,0.7,0.2,1.2c-0.7,0.1-1.4,0.2-2,0.2c-0.9-0.1-1.4-0.6-1.4-1.6C314.9,175.2,315,171.7,315,168.1z"/>
	<path class="st2" d="M279.4,171.5c0.5,0,0.9,0,1.4,0c0,2.9,0,5.7,0,8.6c-0.5,0-0.9,0-1.4,0C279.4,177.3,279.4,174.4,279.4,171.5z"
		/>
	<path class="st6" d="M295.5,180.1c-0.5,0-0.9,0-1.4,0c0-2.9,0-5.7,0-8.6c0.5,0,0.9,0,1.4,0C295.5,174.4,295.5,177.2,295.5,180.1z"
		/>
	<path class="st1" d="M131.6,171.5c0.5,0,0.9,0,1.3,0c0,2.9,0,5.7,0,8.6c-0.4,0-0.8,0-1.3,0C131.6,177.3,131.6,174.4,131.6,171.5z"
		/>
	<path class="st1" d="M189,180.1c-0.4,0-0.8,0-1.3,0c0-2.8,0-5.7,0-8.6c0.4,0,0.8,0,1.3,0C189,174.4,189,177.2,189,180.1z"/>
	<path class="st7" d="M247.4,171.5c0.5,0,0.9,0,1.3,0c0,2.9,0,5.7,0,8.6c-0.4,0-0.9,0-1.3,0C247.4,177.3,247.4,174.4,247.4,171.5z"
		/>
	<path class="st7" d="M179.8,179.3c0,0.6-0.4,1.1-1,1.1c-0.6,0-1-0.4-1-1c0-0.6,0.4-1,1-1C179.5,178.3,179.8,178.7,179.8,179.3z"/>
	<path class="st7" d="M260,179.3c0-0.7,0.3-1,1-1c0.6,0,1.1,0.4,1.1,1c0,0.6-0.5,1.1-1.1,1C260.3,180.4,260,179.9,260,179.3z"/>
	<path class="st7" d="M320.5,179.4c0-0.7,0.3-1,0.9-1c0.7,0,1.1,0.4,1.1,1c0,0.6-0.5,1.1-1.1,1.1C320.9,180.4,320.5,180,320.5,179.4
		z"/>
	<path class="st7" d="M295.8,168.9c0,0.5-0.5,0.9-1,1c-0.5,0-1-0.4-1-0.9c0-0.5,0.4-1,1-1C295.3,167.9,295.8,168.4,295.8,168.9z"/>
	<path class="st7" d="M249,168.9c0,0.5-0.4,0.9-1,1c-0.5,0-1-0.4-1-0.9c0-0.5,0.5-1,1-1C248.5,167.9,249,168.4,249,168.9z"/>
	<path class="st7" d="M280,169.8c-0.6,0-1-0.4-1-1c0-0.6,0.5-1,1-1c0.5,0,1,0.5,1,1C281.1,169.5,280.6,169.8,280,169.8z"/>
	<path class="st7" d="M132.3,169.8c-0.6,0-0.9-0.3-0.9-0.9c0-0.6,0.4-1,0.9-1c0.6,0,1,0.4,1,1C133.3,169.5,132.9,169.8,132.3,169.8z
		"/>
	<path class="st7" d="M188.2,169.8c-0.6,0-0.9-0.3-0.9-0.9c0-0.6,0.4-1,1-1c0.6,0,1,0.5,1,1C189.3,169.5,188.9,169.8,188.2,169.8z"
		/>
	<path class="st2" d="M430.8,145.4c0-0.1,0-0.2-0.1-0.3C430.7,145.2,430.8,145.3,430.8,145.4z"/>
	<path class="st2" d="M430.6,144.1c0-0.1,0-0.1-0.1-0.2C430.6,144,430.6,144.1,430.6,144.1z"/>
	<path class="st9" d="M343.1,146.7c0.3-4.3,1.5-8.3,3.2-12.2c0-0.1,0-0.1,0-0.2c1.5-2.7,2.9-5.5,4.6-8.2c2.7-4.5,6-8.6,9.5-12.5
		c4.2-4.8,8.7-9.2,13.8-13c1.2-0.9,2.4-1.6,3.7-2.4c1.7-0.7,3.3-1.6,5-2.1c1.6-0.5,3.2-0.8,4.9-1c6-0.5,11.3,1.6,16,5.2
		c1.5,1.2,2.8,2.5,4.3,3.8c0.2,0.2,0.4,0.3,0.6,0.5c0.1,0.1,0.1,0.2,0.2,0.3c2.2,2.4,4.1,5,5.9,7.8c3.1,5,5.6,10.2,7.4,15.8
		c0.8,2.5,1.4,5.1,2.1,7.7c0.3,2.3,0.7,4.5,1,6.8c0.2,1.3,0.2,2.7,0.3,4c0,1.8,0,3.6,0,5.5c-0.2,4.3-0.8,8.5-2.1,12.5
		c-0.1,0.2-0.1,0.4-0.1,0.6c-1,2.1-1.8,4.3-3,6.4c-1.9,3.4-4.7,6-8.1,8c0,0-0.1,0.1-0.1,0.1c-0.6,0.3-1.2,0.6-1.8,0.9
		c-1.6,0.5-3.1,1-4.7,1.4c-2.7,0.6-5.4,0.6-8.1,0.4c-0.8-0.1-1.6-0.2-2.4-0.2c-9.1-1.6-17.9-4.4-26.4-8.1c-4.7-2.1-9.2-4.5-13.4-7.5
		c-2.6-1.8-5-3.9-7-6.3c-0.2-0.2-0.3-0.3-0.5-0.5c-0.7-1.1-1.5-2.2-2.2-3.3c-1.7-2.8-2.5-5.9-2.4-9.1
		C343.2,147.4,343.2,147.1,343.1,146.7z M401,181.8c2.2,0.1,4.4-0.3,6.5-0.9c3.4-0.9,6.4-2.7,8.9-5.3c2.1-2.1,3.7-4.6,4.9-7.4
		c1.9-4.4,2.9-9.1,3.1-13.9c0.1-0.7,0.2-1.5,0.2-2.2c0-2.1-0.1-4.2-0.2-6.3c0-0.6-0.1-1.2-0.1-1.8c-0.1-1-0.1-1.9-0.3-2.9
		c-0.3-1.9-0.6-3.7-1-5.6c-0.4-1.8-0.9-3.5-1.4-5.3c0-0.1,0-0.3-0.1-0.4c-2.2-7.1-5.5-13.8-9.8-19.9c-2.9-4.1-6.3-7.7-10.6-10.4
		c-4-2.5-8.3-3.9-13.1-3.5c-4.4,0.4-8.3,2.1-12,4.5c-1.5,1.2-3,2.3-4.5,3.5c-2.6,2.3-5.2,4.6-7.5,7.2c-0.1,0.1-0.3,0.2-0.4,0.4
		c-2.3,2.7-4.7,5.5-7,8.3c-1.1,1.4-2.1,2.9-3.1,4.4c-0.1,0.1-0.2,0.2-0.3,0.3c-2.5,3.8-4.8,7.7-6.5,12c-0.6,2-1.4,4-1.9,6.1
		c-0.7,2.9-0.8,5.9-0.1,8.9c0.8,3.4,2.6,6.3,5,8.9c1.8,2,3.8,3.8,6,5.3c1.1,0.8,2.2,1.6,3.4,2.3c2,1.2,4,2.2,6,3.3
		c0.1,0.1,0.2,0.1,0.3,0.2c5.6,2.8,11.5,5.1,17.6,6.9c1,0.3,2,0.5,3,0.8c0.4,0.1,0.7,0.3,1.1,0.4c3.1,0.6,6.1,1.3,9.2,1.9
		C397.7,181.7,399.4,181.8,401,181.8z"/>
	<path class="st2" d="M412.1,180.1c0,0,0.1-0.1,0.1-0.1C412.2,180.1,412.1,180.1,412.1,180.1z"/>
	<path class="st8" d="M424.2,136.3c-0.7-2.6-1.3-5.1-2.1-7.7c-1.8-5.6-4.3-10.9-7.4-15.8c-1.7-2.8-3.7-5.4-5.9-7.8
		c-0.1-0.1-0.1-0.2-0.2-0.3c0.4,0.2,0.9,0.4,1.3,0.8c1.1,1,2.3,2.1,3.3,3.2c0.8,0.8,1.4,1.7,2.1,2.6c0.6,0.8,1.2,1.7,1.7,2.6
		c0.8,1.2,1.6,2.5,2.3,3.7c0.1,0.2,0.2,0.5,0.3,0.7c0.6,1.2,1.2,2.4,1.6,3.7c0.6,1.4,1,2.9,1.5,4.4c0.3,1.2,0.6,2.4,0.8,3.6
		c0.2,1.2,0.3,2.4,0.5,3.7c0.1,0.7,0.2,1.3,0.2,2C424.4,135.9,424.2,136.1,424.2,136.3z"/>
	<path class="st3" d="M376,100.7c3.6-2.5,7.5-4.2,12-4.5c4.8-0.4,9.1,1,13.1,3.5c4.3,2.7,7.7,6.3,10.6,10.4
		c4.4,6.1,7.6,12.8,9.8,19.9c0,0.1,0.1,0.3,0.1,0.4c-0.1,0.1-0.2,0.3-0.2,0.4c0,0.6,0.1,1.3,0.2,1.9c0.2,1.9,0.4,3.8,0.5,5.6
		c0.1,2.1-0.1,4.3-0.1,6.4c0,0.3-0.1,0.5-0.2,0.8c-0.2,0.6-0.3,1.3-0.5,1.9c-0.3,1.4-0.7,2.9-1,4.4c-0.1,0.5-0.2,1.1-0.4,1.6
		c-1,2.5-2.1,4.9-3.1,7.3c-0.1,0.2-0.3,0.3-0.5,0.4c0.3-0.9,0.5-1.8,0.8-2.6c0.8-3,1.2-6,1.3-9.1c0.2-0.2,0.4-0.4,0.4-0.6
		c0.2-1.2,0.4-2.3,0.5-3.5c0.2-1.8,0.4-3.6,0.5-5.3c0.1-1,0-2.1-0.1-3.1c-0.1-1.8-0.3-3.6-0.6-5.3c-0.3-1.5-0.7-3-1.2-4.5
		c-0.8-2.3-1.7-4.6-2.7-6.8c-0.8-1.7-1.9-3.2-3-4.8c-1.4-2.2-3.1-4.1-5.1-5.8c-1.6-1.4-3.4-2.6-5-3.8c-2.4-1.8-5-2.9-7.8-3.8
		c-2.6-0.9-5.4-1.5-8.2-1.6c-3.1-0.1-6.3,0-9.4,0.6C376.5,101,376.2,100.8,376,100.7z"/>
	<path class="st10" d="M385.8,179.4c-1-0.3-2-0.5-3-0.8c-6-1.8-11.9-4.1-17.6-6.9c-0.1,0-0.2-0.1-0.3-0.2c0.6-0.4,0-0.6-0.2-0.8
		c-0.6-0.4-1.2-0.8-1.8-1.2c-0.6-0.5-1.3-1-1.8-1.5c-1.2-1.2-2.5-2.2-3.5-3.6c-1.6-2.3-3.3-4.5-4.5-7c-0.2-0.5-0.4-0.9-0.6-1.4
		c0,0,0.1,0.1,0.1,0.1c2.3,3.4,5.3,6.1,8.6,8.4c4.5,3.1,9.4,5.3,14.5,7.2c4.4,1.6,8.9,2.8,13.5,3.6c3.3,0.6,6.6,0.8,9.9,0.3
		c-0.1,0.1-0.2,0.3-0.3,0.4c-0.8,0.4-1.6,0.7-2.5,1c-0.8,0.3-1.6,0.6-2.5,0.8c-1.9,0.5-3.9,0.9-5.8,1.3
		C387.5,179.3,386.6,179.3,385.8,179.4z"/>
	<path class="st8" d="M385.8,179.4c0.8-0.1,1.6-0.1,2.4-0.3c2-0.4,3.9-0.8,5.8-1.3c0.8-0.2,1.7-0.5,2.5-0.8c0.8-0.3,1.6-0.7,2.5-1
		c0.1-0.1,0.2-0.2,0.3-0.4c5.9-0.8,10.5-3.6,13.9-8.5c1.3-1.8,2.2-3.8,3-5.8c0.2-0.1,0.4-0.3,0.5-0.4c1.1-2.4,2.1-4.9,3.1-7.3
		c0.2-0.5,0.3-1.1,0.4-1.6c0.3-1.4,0.7-2.9,1-4.4c0.1-0.6,0.3-1.3,0.5-1.9c0.1-0.3,0.2-0.5,0.2-0.8c0.1-2.1,0.2-4.3,0.1-6.4
		c-0.1-1.9-0.3-3.8-0.5-5.6c-0.1-0.6-0.2-1.3-0.2-1.9c0-0.1,0.1-0.3,0.2-0.4c0.5,1.8,1,3.5,1.4,5.3c0.4,1.8,0.7,3.7,1,5.6
		c0.2,1,0.2,1.9,0.3,2.9c0.1,0.6,0.1,1.2,0.1,1.8c-0.1,0.2-0.3,0.4-0.4,0.6c-0.1,0.4,0,0.8,0,1.2c-0.6,2.4-1.1,4.8-1.9,7.2
		c-0.7,2.1-1.7,4.2-2.7,6.3c-0.3,0.7-0.7,1.3-1.1,2c-0.7,1.1-1.5,2.2-2.3,3.2c-0.8,1.2-1.6,2.4-2.6,3.4c-1.3,1.4-2.7,2.8-4.1,4.1
		c-0.9,0.8-1.8,1.6-2.8,2.3c-2.3,1.6-4.7,3.2-7.3,4.2c-0.8,0.3-1.7,0.6-2.6,0.9c-0.2,0.1-0.4,0.3-0.6,0.5c-3.1-0.6-6.1-1.3-9.2-1.9
		C386.6,179.7,386.2,179.5,385.8,179.4z"/>
	<path class="st11" d="M353.4,124.4c1-1.5,2-3,3.1-4.4c2.3-2.8,4.7-5.5,7-8.3c0.1-0.1,0.3-0.3,0.4-0.4c0.2-0.1,0.5-0.1,0.7-0.3
		c1.5-1,2.9-2,4.4-2.9c2.2-1.3,4.6-2.3,7.1-2.9c1.3-0.3,2.7-0.5,4.1-0.7c0.5-0.1,1.1,0,1.6,0c-1.1,0.4-2.2,0.8-3.2,1.3
		c-4.2,2-7.7,5-11.1,8.1c-3.7,3.4-7.1,7.2-10,11.4c-2,2.8-3.8,5.7-5.1,8.8c-0.6,1.5-1.2,2.9-1.7,4.4c0-0.2-0.1-0.5-0.1-0.7
		c-0.1-2,0.3-4,0.7-5.9c0.1-0.6,0.1-1.2,0.3-1.7c0.6-1.7,1.2-3.5,1.7-5.2C353.5,124.8,353.4,124.6,353.4,124.4z"/>
	<path class="st5" d="M376,100.7c0.3,0.1,0.5,0.3,0.8,0.2c3.1-0.6,6.3-0.7,9.4-0.6c2.8,0.1,5.6,0.7,8.2,1.6c2.8,0.9,5.4,2.1,7.8,3.8
		c1.7,1.3,3.5,2.4,5,3.8c1.9,1.7,3.7,3.7,5.1,5.8c1,1.6,2.1,3.1,3,4.8c1.1,2.2,1.9,4.5,2.7,6.8c0.5,1.5,0.9,3,1.2,4.5
		c0.3,1.8,0.4,3.6,0.6,5.3c0.1,1,0.2,2.1,0.1,3.1c-0.1,1.8-0.3,3.6-0.5,5.3c-0.1,1.2-0.3,2.3-0.5,3.5c0,0.2-0.3,0.4-0.4,0.6
		c0-1.2,0.1-2.4,0-3.5c-0.1-1.8-0.3-3.7-0.4-5.5c0.1-0.2,0.2-0.4,0.2-0.6c-0.1-1.9-0.2-3.7-0.4-5.6c-0.2-1.6-0.4-3.1-0.8-4.6
		c-0.4-1.5-0.9-2.9-1.4-4.3c-0.5-1.5-1.1-3-1.8-4.3c-1.1-1.9-2.3-3.7-3.5-5.5c-0.6-0.9-1.4-1.8-2.2-2.7c-0.8-0.9-1.7-1.7-2.6-2.5
		c-0.8-0.7-1.6-1.4-2.5-2c-1.3-0.8-2.6-1.6-3.9-2.3c-1.4-0.8-2.9-1.5-4.4-2c-1.4-0.5-2.9-0.8-4.4-1.2c-1.1-0.3-2.3-0.6-3.5-0.5
		c-0.8,0-1.6-0.2-2.4-0.2c-1.4,0-2.8,0.1-4.2,0.3c-1.6,0.2-3.1,0.5-4.6,0.8c-1.3,0.3-2.5,0.8-3.7,1.2c-0.1,0-0.2-0.1-0.4-0.1
		C373,103,374.5,101.9,376,100.7z"/>
	<path class="st10" d="M371.5,104.2c0.1,0,0.3,0.1,0.4,0.1c1.2-0.4,2.4-0.9,3.7-1.2c1.5-0.4,3.1-0.6,4.6-0.8
		c1.4-0.2,2.8-0.2,4.2-0.3c0.8,0,1.6,0.3,2.4,0.2c1.2-0.1,2.4,0.2,3.5,0.5c1.5,0.4,3,0.7,4.4,1.2c1.5,0.6,3,1.3,4.4,2
		c1.3,0.7,2.6,1.5,3.9,2.3c0.9,0.6,1.7,1.3,2.5,2c0.9,0.8,1.8,1.6,2.6,2.5c0.8,0.8,1.6,1.7,2.2,2.7c1.2,1.8,2.4,3.6,3.5,5.5
		c0.8,1.4,1.3,2.9,1.8,4.3c0.5,1.4,1,2.8,1.4,4.3c0.4,1.5,0.6,3.1,0.8,4.6c0.2,1.8,0.3,3.7,0.4,5.6c0,0.2-0.1,0.4-0.2,0.6
		c-0.3-1.8-0.6-3.5-1-5.3c-1.1-4.8-2.9-9.3-5.3-13.6c-2.4-4.4-5.3-8.3-9-11.7c-2.7-2.4-5.6-4.3-9.1-5.3c-2.4-0.7-4.8-1.1-7.3-0.7
		c-1.4,0.2-2.9,0.5-4.3,0.8c-0.5,0-1.1-0.1-1.6,0c-1.4,0.2-2.7,0.4-4.1,0.7c-2.5,0.6-4.9,1.5-7.1,2.9c-1.5,0.9-3,2-4.4,2.9
		c-0.2,0.1-0.5,0.2-0.7,0.3C366.2,108.8,368.8,106.5,371.5,104.2z"/>
	<path class="st5" d="M353.4,124.4c0,0.2,0.1,0.4,0,0.6c-0.6,1.7-1.2,3.5-1.7,5.2c-0.2,0.5-0.2,1.1-0.3,1.7c-0.4,2-0.8,3.9-0.7,5.9
		c0,0.3,0.1,0.5,0.1,0.7c-0.2,0.8-0.4,1.6-0.6,2.4c-0.7,3.1-0.8,6.1-0.1,9.2c0.5,2,1.4,3.9,2.5,5.7c0.2,0.5,0.3,0.9,0.6,1.4
		c1.2,2.5,2.9,4.8,4.5,7c1,1.3,2.3,2.4,3.5,3.6c0.6,0.5,1.2,1,1.8,1.5c0.6,0.4,1.2,0.8,1.8,1.2c0.2,0.2,0.8,0.4,0.2,0.8
		c-2-1.1-4.1-2.2-6-3.3c-1.2-0.7-2.3-1.5-3.4-2.3c0-0.2,0-0.5-0.1-0.6c-0.4-0.5-0.8-1-1.1-1.5c-0.8-1.3-1.7-2.6-2.4-4
		c-0.9-1.7-1.8-3.5-2.5-5.3c-0.7-1.8-1.2-3.6-1.6-5.5c-0.5-2.2-0.7-4.4-1-6.6c0-0.3,0-0.6,0-0.8c0-1.4,0-2.8,0-4.2
		c0-0.2-0.1-0.4-0.2-0.6c1.7-4.2,4-8.2,6.5-12C353.1,124.6,353.3,124.5,353.4,124.4z"/>
	<path class="st2" d="M424.4,154.3c-0.3,4.8-1.2,9.5-3.1,13.9c-1.2,2.7-2.8,5.2-4.9,7.4c-2.5,2.5-5.4,4.3-8.9,5.3
		c-2.1,0.6-4.3,1-6.5,0.9c0.2-0.1,0.3-0.3,0.5-0.4c0.6-0.3,1.2-0.5,1.7-0.8c1.7-1.1,3.4-2.2,5-3.4c1.2-0.9,2.4-1.9,3.5-2.9
		c1.2-1.1,2.3-2.4,3.4-3.6c1-1.1,2-2.3,2.8-3.5c0.7-1,1.3-2.1,1.9-3.2c0.6-1,1.2-2.1,1.6-3.1c0.8-1.8,1.5-3.5,2.2-5.3
		C423.9,155.1,424.2,154.7,424.4,154.3z"/>
	<path class="st4" d="M424.4,154.3c-0.2,0.4-0.5,0.7-0.6,1.1c-0.7,1.8-1.4,3.6-2.2,5.3c-0.5,1.1-1,2.1-1.6,3.1
		c-0.6,1.1-1.2,2.2-1.9,3.2c-0.9,1.2-1.9,2.4-2.8,3.5c-1.1,1.2-2.2,2.5-3.4,3.6c-1.1,1.1-2.3,2-3.5,2.9c-1.6,1.2-3.3,2.3-5,3.4
		c-0.5,0.3-1.2,0.5-1.7,0.8c-0.2,0.1-0.3,0.3-0.5,0.4c-1.6-0.1-3.3-0.1-4.9-0.2c0.2-0.2,0.4-0.4,0.6-0.5c0.9-0.3,1.7-0.6,2.6-0.9
		c2.6-1.1,5-2.6,7.3-4.2c1-0.7,1.9-1.5,2.8-2.3c1.4-1.3,2.8-2.7,4.1-4.1c0.9-1.1,1.7-2.3,2.6-3.4c0.8-1.1,1.5-2.1,2.3-3.2
		c0.4-0.6,0.8-1.3,1.1-2c0.9-2.1,1.9-4.1,2.7-6.3c0.8-2.3,1.3-4.8,1.9-7.2c0.1-0.4,0-0.8,0-1.2c0-0.2,0.2-0.4,0.4-0.6
		c0.1,2.1,0.2,4.2,0.2,6.3C424.6,152.9,424.4,153.6,424.4,154.3z"/>
	<path class="st3" d="M346.6,136.7c0.1,0.2,0.2,0.4,0.2,0.6c0,1.4,0,2.8,0,4.2c0,0.3,0,0.6,0,0.8c0.3,2.2,0.5,4.4,1,6.6
		c0.4,1.9,0.9,3.7,1.6,5.5c0.7,1.8,1.6,3.6,2.5,5.3c0.7,1.4,1.6,2.7,2.4,4c0.3,0.5,0.8,1,1.1,1.5c0.1,0.2,0.1,0.4,0.1,0.6
		c-2.3-1.5-4.2-3.3-6-5.3c-2.3-2.6-4.2-5.4-5-8.9c-0.7-3-0.6-6,0.1-8.9C345.2,140.7,345.9,138.7,346.6,136.7z"/>
	<path class="st9" d="M352.6,156c-1.1-1.8-2-3.7-2.5-5.7c-0.7-3.1-0.6-6.2,0.1-9.2c0.2-0.8,0.4-1.6,0.6-2.4c0.6-1.5,1.1-3,1.7-4.4
		c1.4-3.1,3.2-6,5.1-8.8c2.9-4.1,6.3-7.9,10-11.4c3.4-3.1,6.9-6.1,11.1-8.1c1-0.5,2.1-0.9,3.2-1.3c1.4-0.3,2.8-0.6,4.3-0.8
		c2.5-0.3,4.9,0,7.3,0.7c3.5,1.1,6.4,2.9,9.1,5.3c3.7,3.3,6.6,7.3,9,11.7c2.4,4.3,4.2,8.8,5.3,13.6c0.4,1.7,0.7,3.5,1,5.3
		c0.1,1.8,0.3,3.7,0.4,5.5c0.1,1.2,0,2.4,0,3.5c-0.1,3.1-0.5,6.1-1.3,9.1c-0.2,0.9-0.5,1.8-0.8,2.6c-0.8,2-1.7,4-3,5.8
		c-3.4,4.9-8,7.7-13.9,8.5c-3.3,0.5-6.6,0.2-9.9-0.3c-4.6-0.8-9.1-2-13.5-3.6c-5.1-1.8-10-4.1-14.5-7.2c-3.4-2.3-6.3-5-8.6-8.4
		C352.7,156.1,352.7,156,352.6,156z M394.7,174.7c1.9,0.1,3.8,0,5.7-0.4c3.5-0.7,6.7-2.2,9.3-4.7c2.7-2.5,4.5-5.6,5.7-9.1
		c0.9-2.5,1.5-5.1,1.7-7.8c0.2-1.9,0.2-3.7,0.4-5.6c-0.1-1.9-0.2-3.7-0.4-5.6c-0.3-3.5-1.1-6.9-2.2-10.2c-1.2-3.6-2.7-7.1-4.6-10.3
		c-2.4-4.1-5.2-7.8-8.8-10.9c-1.5-1.3-3.1-2.4-4.8-3.3c-2.2-1.1-4.5-1.8-7-2.1c-2.5-0.2-4.9,0-7.3,0.8c-0.2,0-0.4,0.1-0.6,0.1
		c-4.5,1.6-8.2,4.4-11.7,7.5c-3.4,3-6.5,6.2-9.3,9.8c-0.2,0.3-0.4,0.5-0.7,0.8c-2.1,2.8-4,5.6-5.6,8.7c-0.6,1.2-1.1,2.4-1.6,3.6
		c-1.2,2.6-1.9,5.3-2.1,8.2c-0.3,4,0.6,7.8,2.8,11.2c1.6,2.4,3.6,4.4,5.8,6.2c1.1,0.9,2.3,1.6,3.5,2.4c1.4,0.9,2.8,1.8,4.3,2.6
		c3.2,1.8,6.7,3.2,10.2,4.3c2.1,0.7,4.3,1.3,6.5,1.9c1.1,0.3,2.1,0.6,3.2,0.8C389.5,174.2,392,174.8,394.7,174.7z"/>
	<path class="st12" d="M383.7,172.9c-2.2-0.6-4.3-1.2-6.5-1.9c-3.5-1.2-6.9-2.6-10.2-4.3c-1.5-0.8-2.9-1.7-4.3-2.6
		c0.3-0.1,0.3-0.2,0.1-0.4c-0.3-0.3-0.6-0.7-0.9-1c-0.8-1-1.7-2-2.4-3.1c-0.9-1.3-1.8-2.7-2.5-4.1c-0.8-1.5-1.4-3.1-2-4.7
		c-0.3-0.8-0.6-1.6-0.8-2.5c-0.3-1.1-0.5-2.2-0.7-3.3c-0.2-1-0.3-2-0.4-3c-0.1-0.6,0-1.1,0-1.7c0-1,0-1.9,0-2.9c0-0.5,0.3-1-0.3-1.4
		c0.5-1.2,1-2.5,1.6-3.6c1.6-3.1,3.5-6,5.6-8.7c0.2-0.3,0.4-0.5,0.7-0.8c0,0.2,0.1,0.3,0.1,0.4c-0.1,0.2-0.3,0.3-0.4,0.4
		c-0.9,2-1.9,4-2.6,6.1c-0.5,1.4-0.7,2.9-1.1,4.4c0,0.1,0,0.2,0,0.3c0,0.7,0.1,1.4-0.1,2c-0.3,0.8,0.1,1.6,0,2.4
		c0,0.1,0.2,0.2,0.2,0.3c-0.1,0.6-0.2,1.2-0.3,1.8c-0.5,2.9-0.4,5.8,0.5,8.6c1.3,4,3.9,7,7.1,9.6c3.6,2.9,7.6,4.9,11.9,6.5
		c4,1.4,8.1,2.5,12.4,2.9c2.8,0.3,5.6,0.3,8.3-0.4c1.6-0.4,3.1-1.2,4.7-1.8c-0.1,0.2-0.1,0.4-0.3,0.5c-0.8,0.5-1.6,1.1-2.4,1.5
		c-2.2,1.3-4.5,2.4-6.9,3c-2.5,0.7-5,1.2-7.6,1.1C384,172.7,383.9,172.8,383.7,172.9z"/>
	<path class="st12" d="M370,113.2c3.5-3.1,7.2-5.9,11.7-7.5c0.2-0.1,0.4-0.1,0.6-0.1c0.3,0.1,0.5,0.4,0.8,0.4c1,0,1.9,0,2.9,0
		c0.7,0,1.4,0,2.1,0.2c1.7,0.4,3.3,0.9,4.9,1.3c2.6,0.7,5,2,7.2,3.6c1.3,0.9,2.6,2,3.8,3.1c1.6,1.4,3,3,4.2,4.8
		c1.2,1.7,2.1,3.4,3,5.2c1.2,2.4,2,4.9,2.6,7.5c0.6,2.8,0.9,5.7,0.8,8.6c-0.1,1.6-0.2,3.2-0.4,4.8c-0.4,2.6-1.2,5-2.1,7.5
		c-0.2,0.6-0.5,1.2-0.8,1.8c-0.7,1.3-1.4,2.6-2.1,3.9c-0.3,0.5-0.8,1-1.2,1.4c0.1-0.1,0.1-0.3,0.2-0.4c2.2-4.2,3.1-8.7,3.2-13.4
		c0-2-0.2-4-0.4-6c0.1-0.2,0.2-0.3,0.2-0.5c0-0.8-0.2-1.6-0.1-2.4c0.1-1.6-0.4-3-0.6-4.6c-0.2-0.9-0.5-1.8-0.8-2.7
		c-0.2-0.8-0.4-1.6-0.7-2.4c-0.4-0.9-0.9-1.7-1.3-2.6c-0.2-0.4-0.3-0.9-0.5-1.3c-0.6-0.9-1.3-1.8-2-2.7c-0.8-1.1-1.5-2.5-2.6-3.3
		c-0.6-0.4-1.1-0.9-1.6-1.3c-0.7-0.6-1.3-1.3-2.1-1.8c-1.6-0.9-3-2.1-4.8-2.6c-0.9-0.3-1.7-0.7-2.6-1c-0.6-0.2-1.2-0.5-1.9-0.6
		c-1.2-0.2-2.3-0.4-3.5-0.4c-1.5-0.1-3-0.1-4.5,0c-1.3,0.1-2.7,0.4-4,0.7c-0.7,0.2-1.5,0.3-2.2,0.6c-1.1,0.4-2.1,1-3.2,1.5
		c-0.5,0.2-0.9,0.5-1.4,0.7C370.5,113.2,370.2,113.2,370,113.2z"/>
	<path class="st13" d="M408,159.7c0.4-0.5,0.8-0.9,1.2-1.4c0.8-1.3,1.5-2.6,2.1-3.9c0.3-0.6,0.6-1.2,0.8-1.8
		c0.9-2.4,1.7-4.9,2.1-7.5c0.2-1.6,0.3-3.2,0.4-4.8c0.2-2.9-0.2-5.7-0.8-8.6c-0.5-2.6-1.4-5.1-2.6-7.5c-0.9-1.8-1.8-3.5-3-5.2
		c-1.2-1.8-2.6-3.4-4.2-4.8c-1.2-1.1-2.5-2.2-3.8-3.1c-2.2-1.5-4.6-2.9-7.2-3.6c-1.6-0.4-3.3-0.9-4.9-1.3c-0.7-0.2-1.4-0.2-2.1-0.2
		c-1,0-1.9,0-2.9,0c-0.3,0-0.5-0.2-0.8-0.4c2.4-0.8,4.8-1.1,7.3-0.8c2.5,0.2,4.8,1,7,2.1c1.8,0.9,3.3,2,4.8,3.3
		c3.6,3.1,6.4,6.8,8.8,10.9c1.9,3.3,3.4,6.7,4.6,10.3c1.1,3.3,1.9,6.7,2.2,10.2c0.2,1.9,0.2,3.7,0.4,5.6c-0.1,0.2-0.3,0.4-0.3,0.6
		c-0.3,1-0.5,2.1-0.8,3.2c-1.2,4-2.9,7.7-5.5,11c-1.2,1.6-2.6,3.2-3.9,4.7c-0.4,0.5-1,0.8-1.5,1.2c-1.2,1-2.4,2-3.7,2.9
		c-0.9,0.7-1.9,1.2-2.9,1.8c-0.9,0.5-1.8,0.8-2.6,1.3c-0.5,0.3-1,0.6-1.5,0.9c-2.6,0-5.2-0.5-7.8-1c-1.1-0.2-2.1-0.5-3.2-0.8
		c0.2-0.1,0.3-0.3,0.5-0.3c2.6,0.1,5.2-0.4,7.6-1.1c2.4-0.7,4.7-1.7,6.9-3c0.8-0.5,1.6-1,2.4-1.5c0.1-0.1,0.2-0.3,0.3-0.5
		c0.1,0,0.2-0.1,0.3-0.1c0.4,0.3,0.3,0,0.4-0.2c0,0,0,0,0,0c0,0,0.1-0.1,0.1-0.1c0.9-0.7,1.9-1.4,2.6-2.2c1-1.1,1.9-2.4,2.9-3.6
		C407.8,160,407.9,159.9,408,159.7C408,159.7,408,159.7,408,159.7z"/>
	<path class="st14" d="M370,113.2c0.2,0,0.4,0,0.6,0c0.5-0.2,0.9-0.5,1.4-0.7c1-0.5,2.1-1,3.2-1.5c0.7-0.3,1.5-0.4,2.2-0.6
		c1.3-0.3,2.7-0.6,4-0.7c1.5-0.1,3-0.1,4.5,0c1.2,0.1,2.3,0.2,3.5,0.4c0.6,0.1,1.3,0.3,1.9,0.6c0.9,0.3,1.7,0.8,2.6,1
		c1.8,0.5,3.2,1.7,4.8,2.6c0.8,0.5,1.4,1.2,2.1,1.8c0.5,0.4,1,0.9,1.6,1.3c1.2,0.9,1.8,2.2,2.6,3.3c0.7,0.9,1.4,1.8,2,2.7
		c0.3,0.4,0.3,0.9,0.5,1.3c0.4,0.9,0.9,1.7,1.3,2.6c0.3,0.8,0.5,1.6,0.7,2.4c0.3,0.9,0.7,1.8,0.8,2.7c0.3,1.5,0.7,3,0.6,4.6
		c-0.1,0.8,0.1,1.6,0.1,2.4c0,0.2-0.2,0.3-0.2,0.5c-0.2-1-0.3-1.9-0.6-2.9c-1.5-6.2-4.1-11.9-8.2-16.8c-2.4-2.9-5.2-5.3-8.8-6.8
		c-3-1.3-6.2-1.8-9.4-1.3c-3.1,0.5-6,1.8-8.6,3.5c-3.8,2.5-7.2,5.6-10.2,9c-2.4,2.8-4.5,5.7-6,9c-0.9,1.9-1.5,3.8-2.2,5.7
		c-0.1-0.1-0.2-0.2-0.2-0.3c0.1-0.8-0.3-1.6,0-2.4c0.2-0.6,0.1-1.3,0.1-2c0-0.1,0-0.2,0-0.3c0.3-1.5,0.6-3,1.1-4.4
		c0.8-2.1,1.7-4.1,2.6-6.1c0.1-0.2,0.3-0.3,0.4-0.4c0-0.1-0.1-0.3-0.1-0.4C363.5,119.4,366.6,116.2,370,113.2z"/>
	<path class="st5" d="M394.7,174.7c0.5-0.3,1-0.6,1.5-0.9c0.9-0.4,1.8-0.8,2.6-1.3c1-0.5,2-1.1,2.9-1.8c1.3-0.9,2.4-1.9,3.7-2.9
		c0.5-0.4,1.1-0.8,1.5-1.2c1.3-1.6,2.7-3.1,3.9-4.7c2.5-3.3,4.2-7.1,5.5-11c0.3-1,0.5-2.1,0.8-3.2c0.1-0.2,0.2-0.4,0.3-0.6
		c-0.1,1.9-0.2,3.7-0.4,5.6c-0.2,2.7-0.8,5.3-1.7,7.8c-1.2,3.5-3,6.6-5.7,9.1c-2.6,2.5-5.8,4-9.3,4.7
		C398.5,174.7,396.6,174.8,394.7,174.7z"/>
	<path class="st13" d="M352.8,136.1c0.6,0.4,0.2,0.9,0.3,1.4c0,1,0,1.9,0,2.9c0,0.6,0,1.1,0,1.7c0.1,1,0.2,2,0.4,3
		c0.2,1.1,0.4,2.2,0.7,3.3c0.2,0.8,0.5,1.7,0.8,2.5c0.6,1.6,1.2,3.2,2,4.7c0.7,1.4,1.6,2.8,2.5,4.1c0.7,1.1,1.6,2,2.4,3.1
		c0.3,0.4,0.6,0.7,0.9,1c0.2,0.2,0.2,0.3-0.1,0.4c-1.2-0.8-2.4-1.5-3.5-2.4c-2.2-1.8-4.2-3.8-5.8-6.2c-2.3-3.4-3.2-7.1-2.8-11.2
		C350.9,141.5,351.7,138.8,352.8,136.1z"/>
	<path class="st9" d="M356.9,139.4c0.7-1.9,1.3-3.9,2.2-5.7c1.5-3.3,3.7-6.2,6-9c3-3.5,6.4-6.5,10.2-9c2.6-1.7,5.5-3,8.6-3.5
		c3.3-0.5,6.4,0,9.4,1.3c3.5,1.5,6.3,3.9,8.8,6.8c4.2,4.9,6.8,10.6,8.2,16.8c0.2,1,0.4,1.9,0.6,2.9c0.1,2,0.4,4,0.4,6
		c0,4.7-0.9,9.2-3.2,13.4c-0.1,0.1-0.1,0.3-0.2,0.4c0,0,0,0,0,0c-0.1,0.1-0.2,0.3-0.3,0.4c-1,1.2-1.8,2.5-2.9,3.6
		c-0.8,0.8-1.8,1.5-2.6,2.2c0,0-0.1,0.1-0.1,0.1c0,0,0,0,0,0c-0.1,0.1-0.3,0.2-0.4,0.2c-0.1,0-0.2,0.1-0.3,0.1
		c-1.6,0.6-3.1,1.3-4.7,1.8c-2.7,0.8-5.5,0.7-8.3,0.4c-4.2-0.4-8.4-1.4-12.4-2.9c-4.3-1.6-8.3-3.6-11.9-6.5
		c-3.2-2.6-5.8-5.6-7.1-9.6c-0.9-2.8-1-5.7-0.5-8.6C356.7,140.6,356.8,140,356.9,139.4z M409.9,139.8c-0.1-0.4-0.1-0.7-0.2-1.1
		c-0.6-3.1-1.5-6-2.7-8.9c-1.7-3.9-4-7.5-7-10.6c-1.6-1.6-3.3-3-5.3-4.1c-1.5-0.8-3-1.4-4.7-1.8c-1.9-0.4-3.9-0.6-5.9-0.2
		c-1.4,0.3-2.8,0.8-4.2,1.2c-0.2,0.1-0.4,0.1-0.6,0.2c-1.2,0.7-2.5,1.3-3.6,2.1c-3.8,2.4-7.1,5.4-9.9,8.9c-1.5,1.8-2.8,3.8-4.2,5.8
		c-0.5,0.9-1,1.7-1.4,2.6c-1.4,2.8-2.4,5.7-2.7,8.9c-0.2,2.5,0,4.8,0.9,7.1c1.1,2.9,2.9,5.3,5.2,7.4c2.4,2.2,5.2,4,8.1,5.4
		c3.1,1.6,6.4,2.8,9.8,3.6c2,0.5,4,0.8,6,1.1c0.9,0.1,1.8,0.3,2.7,0.4c1.8,0.1,3.6,0,5.4-0.3c5.5-1.1,9.4-4.1,12-9
		c2-3.7,2.8-7.8,2.8-12C410.3,144.3,410,142,409.9,139.8z"/>
	<path class="st12" d="M401.6,166.3c0.1-0.1,0.3-0.2,0.4-0.2C402,166.3,402,166.6,401.6,166.3z"/>
	<path class="st12" d="M407.7,160.1c0.1-0.1,0.2-0.3,0.3-0.4C407.9,159.9,407.8,160,407.7,160.1z"/>
	<path class="st12" d="M402,166.1c0,0,0.1-0.1,0.1-0.1C402.1,166,402.1,166,402,166.1z"/>
	<path class="st14" d="M379.8,114.4c1.4-0.4,2.8-1,4.2-1.2c1.9-0.4,3.9-0.2,5.9,0.2c1.7,0.4,3.2,1,4.7,1.8c2,1.1,3.8,2.5,5.3,4.1
		c3,3.1,5.3,6.7,7,10.6c1.3,2.9,2.2,5.8,2.7,8.9c0.1,0.4,0.1,0.7,0.2,1.1c-0.1,0.4-0.2,0.7-0.2,1.1c0,0.2,0.1,0.4,0,0.6
		c-0.2,1.2-0.4,2.3-0.6,3.5c-0.2,0.9-0.4,1.9-0.6,2.8c-0.2,0.6-0.5,1.2-0.7,1.8c-0.6,2-1.5,3.9-2.8,5.7c-0.3,0.4-0.6,0.8-0.8,1.2
		c-0.7,0.9-1.4,1.9-2.2,2.8c-0.8,0.8-1.6,1.6-2.5,2.3c-1.1,0.9-2.2,1.7-3.4,2.5c-1.4,0.9-2.9,1.6-4.5,2.1c-1,0.3-2,0.5-3,0.8
		c-0.5,0.1-1.1-0.1-1.3,0.6c-2-0.4-4.1-0.7-6-1.1c-3.4-0.8-6.7-2-9.8-3.6c-2.9-1.5-5.7-3.2-8.1-5.4c-2.3-2.1-4.1-4.5-5.2-7.4
		c-0.8-2.3-1.1-4.7-0.9-7.1c0.3-3.2,1.3-6.1,2.7-8.9c0.5-0.9,1-1.8,1.4-2.6c0.4,0,0.4,0.2,0.3,0.5c-0.2,0.9-0.5,1.9-0.7,2.8
		c-0.2,1.1-0.3,2.1-0.4,3.2c0,0.4-0.3,0.9,0.2,1.1c0,0.2,0,0.5,0,0.7c-0.2,2.1-0.2,4.1,0.2,6.2c1,5,3.6,9.1,7.7,12.1
		c3.3,2.4,6.9,3.7,11,3.8c1.2,0,2.3-0.2,3.5-0.1c2.4,0.3,4.9,0.5,7.3,0.2c3-0.4,5.7-1.5,7.9-3.6c1.1-1.1,2-2.4,3-3.6
		c0.5-0.1,0.7-0.3,0.4-0.8c0,0,0-0.1,0-0.1c0.3-0.2,0.6-0.3,0.8-0.6c0.4-0.7,0.8-1.5,1.2-2.2c0.9-1.5,1.2-3.2,1.8-4.8
		c0.2-0.5,0-1.2,0.3-1.7c0.6-1.1,0.5-2.3,0.5-3.4c0.1-2.2,0.2-4.3-0.4-6.5c-0.2-0.7-0.2-1.5-0.4-2.2c-0.4-1.1-0.8-2.2-1.3-3.3
		c-0.5-1.2-1-2.4-1.7-3.5c-0.6-1.1-1.4-2-2.2-3c-0.6-0.7-1.1-1.5-1.8-2.1c-2-1.6-4-3.3-6.5-4.2c-0.6-0.2-1.2-0.6-1.8-0.8
		c-1-0.3-2-0.5-3-0.8c-1.3-0.3-2.7-0.4-4.1-0.3c-0.3,0-0.6-0.1-1-0.1c-0.4,0-0.8,0.1-1.1,0.1C380.9,114.6,380.3,115,379.8,114.4z"/>
	<path class="st15" d="M361,139c-0.5-0.3-0.3-0.8-0.2-1.1c0.1-1.1,0.2-2.2,0.4-3.2c0.2-1,0.4-1.9,0.7-2.8c0.1-0.3,0.1-0.6-0.3-0.5
		c1.4-1.9,2.7-3.9,4.2-5.8c2.8-3.5,6.1-6.5,9.9-8.9c1.2-0.8,2.4-1.4,3.6-2.1c0.2-0.1,0.4-0.1,0.6-0.2c0.5,0.7,1.1,0.2,1.6,0.2
		c0.4,0,0.8-0.1,1.1-0.1c0.3,0,0.6,0.1,1,0.1c1.4-0.1,2.7,0,4.1,0.3c1,0.2,2,0.4,3,0.8c0.6,0.2,1.2,0.6,1.8,0.8
		c2.5,0.9,4.4,2.6,6.5,4.2c0.7,0.6,1.2,1.3,1.8,2.1c0.8,1,1.6,1.9,2.2,3c0.7,1.1,1.2,2.3,1.7,3.5c0.5,1.1,0.9,2.2,1.3,3.3
		c0.2,0.7,0.3,1.5,0.4,2.2c0.5,2.1,0.4,4.3,0.4,6.5c0,1.1,0.1,2.3-0.5,3.4c-0.3,0.5-0.1,1.2-0.3,1.7c-0.6,1.6-0.9,3.3-1.8,4.8
		c-0.5,0.7-0.8,1.5-1.2,2.2c-0.2,0.3-0.5,0.4-0.8,0.6c1.5-3.2,2.3-6.5,2.2-10c0-0.8,0-1.5,0-2.3c0.1-0.3,0.3-0.7,0.4-1
		c0-0.2-0.1-0.4-0.1-0.6c0-0.9,0-1.8,0-2.7c-0.2-3-1.1-5.8-2.3-8.5c-0.8-1.7-1.9-3.3-3.2-4.7c-1-1.1-2.2-2.2-3.3-3.2
		c-0.7-0.6-1.5-1.1-2.4-1.5c-1.1-0.6-2.1-1.1-3.2-1.5c-0.5-0.2-1.2-0.3-1.7-0.4c-1-0.2-2.1-0.2-3.1-0.5c-1.2-0.4-2.4-0.1-3.5,0
		c-1.4,0.1-2.7,0.5-4,0.8c-1.1,0.3-2.1,0.7-3.1,1.2c-1.3,0.8-2.5,1.7-3.7,2.6c-1.7,1.3-3,2.9-4.1,4.7c-0.6,0.9-1.1,1.9-1.6,2.9
		c-0.2,0.3-0.3,0.7-0.4,1.1c-0.1,0.1-0.1,0.2-0.2,0.3c-1.2,1.7-2.2,3.5-2.8,5.5C361.5,137,361.3,138,361,139z"/>
	<path class="st12" d="M387.3,167.5c0.2-0.7,0.9-0.5,1.3-0.6c1-0.3,2-0.5,3-0.8c1.6-0.5,3.1-1.2,4.5-2.1c1.2-0.7,2.3-1.6,3.4-2.5
		c0.9-0.7,1.8-1.5,2.5-2.3c0.8-0.9,1.5-1.9,2.2-2.8c0.3-0.4,0.6-0.8,0.8-1.2c1.2-1.7,2.1-3.6,2.8-5.7c0.2-0.6,0.5-1.2,0.7-1.8
		c0.2-0.9,0.4-1.9,0.6-2.8c0.2-1.2,0.4-2.3,0.6-3.5c0-0.2-0.1-0.4,0-0.6c0-0.4,0.1-0.7,0.2-1.1c0.1,2.3,0.4,4.5,0.4,6.8
		c-0.1,4.2-0.9,8.2-2.8,12c-2.6,4.9-6.5,7.9-12,9c-1.8,0.3-3.6,0.4-5.4,0.3C389.1,167.8,388.2,167.6,387.3,167.5z"/>
	<path class="st9" d="M404.2,141.6c0,0.8,0,1.5,0,2.3c0.1,3.5-0.7,6.8-2.2,10c0,0,0,0.1,0,0.1c-0.1,0.3-0.3,0.5-0.4,0.8
		c-1,1.2-1.9,2.5-3,3.6c-2.2,2.1-4.9,3.2-7.9,3.6c-2.4,0.3-4.9,0.1-7.3-0.2c-1.1-0.2-2.3,0.1-3.5,0.1c-4.1-0.1-7.7-1.4-11-3.8
		c-4.1-3-6.7-7.1-7.7-12.1c-0.4-2-0.4-4.1-0.2-6.2c0-0.2,0-0.5,0-0.7c0.3-1,0.5-2,0.8-3c0.6-2,1.5-3.8,2.8-5.5
		c0.1-0.1,0.1-0.2,0.2-0.3c0.1,0,0.1-0.1,0.2-0.1c2.2-2.9,5-5.1,8.5-6.4c0.9-0.4,1.9-0.6,2.7-1.1c2.4-1.4,4.8-2.5,7.5-2.8
		c2.6-0.3,5.1,0.1,7.4,1.2c2.8,1.2,5,3.1,6.9,5.4c3,3.5,4.9,7.5,5.8,12C403.9,139.5,404.1,140.5,404.2,141.6z M399.3,141.3
		c-0.1-1.9-0.4-3.8-1.1-5.6c-0.1-0.2-0.1-0.4-0.2-0.6c-2.2-5.3-6-8.9-11.5-10.8c-1.7-0.5-3.4-0.9-5.2-0.9c-1.5,0.1-2.9,0.2-4.4,0.3
		c-2.3,0.4-4.5,1.3-6.5,2.6c-0.1,0-0.2,0.1-0.2,0.1c-8,5.1-10.9,16.1-6.3,24.4c4.1,7.5,11.9,11.3,20.3,9.7c5.3-1,9.5-4,12.4-8.6
		c0.1-0.1,0.1-0.2,0.2-0.3c1.2-1.9,2-4,2.3-6.2C399.2,144,399.2,142.7,399.3,141.3z M402.5,137.8c-0.5-1.4-0.8-2.8-1.4-4.2
		c-1.5-3.7-3.7-6.8-6.8-9.4c-3.5-2.9-7.4-4.1-11.9-3.2c-1.2,0.2-2.3,0.6-3.5,1.3c8.1-0.2,14.4,2.7,18.6,9.5c4.1,6.8,3.9,13.8,0,20.7
		c-2.3,3.5-5.3,6.2-9.2,7.8c-0.5,0.2-1.1,0.4-1.7,0.7c1.5,0.3,2.9,0.1,4.3-0.1c4.9-0.7,8.3-3.4,10.5-7.7c1.1-2.2,1.7-4.5,1.9-7
		C403.3,143.4,403.2,140.6,402.5,137.8z"/>
	<path class="st15" d="M401.6,154.7c0.1-0.3,0.3-0.5,0.4-0.8C402.3,154.4,402.1,154.7,401.6,154.7z"/>
	<path class="st16" d="M404.2,141.6c-0.2-1-0.3-2.1-0.5-3.1c-0.9-4.5-2.8-8.5-5.8-12c-1.9-2.3-4.1-4.2-6.9-5.4
		c-2.4-1-4.8-1.5-7.4-1.2c-2.8,0.3-5.2,1.4-7.5,2.8c-0.8,0.5-1.8,0.7-2.7,1.1c-3.4,1.3-6.2,3.5-8.5,6.4c0,0-0.1,0.1-0.2,0.1
		c0.1-0.4,0.2-0.8,0.4-1.1c0.5-1,1-2,1.6-2.9c1.2-1.7,2.5-3.4,4.1-4.7c1.2-0.9,2.4-1.8,3.7-2.6c0.9-0.6,2-0.9,3.1-1.2
		c1.3-0.4,2.7-0.7,4-0.8c1.1-0.1,2.3-0.4,3.5,0c1,0.3,2.1,0.3,3.1,0.5c0.6,0.1,1.2,0.2,1.7,0.4c1.1,0.5,2.2,1,3.2,1.5
		c0.8,0.4,1.7,0.9,2.4,1.5c1.2,1,2.3,2,3.3,3.2c1.3,1.4,2.4,3,3.2,4.7c1.3,2.7,2.2,5.5,2.3,8.5c0,0.9,0,1.8,0,2.7
		c0,0.2,0.1,0.4,0.1,0.6C404.5,140.9,404.3,141.2,404.2,141.6z"/>
	<path class="st17" d="M396.6,151.9c-2.9,4.7-7,7.6-12.4,8.6c-8.4,1.6-16.2-2.2-20.3-9.7c-4.5-8.3-1.7-19.3,6.3-24.4
		c0.1,0,0.2-0.1,0.2-0.1c-0.1,0.2-0.1,0.5-0.2,0.7c-0.5,0.8-1.1,1.6-1.6,2.5c-1.7,2.6-2.4,5.6-2.5,8.6c0,1,0.1,2,0.2,3.1
		c0.2,2,0.9,4,1.8,5.8c1.1,2.1,2.6,3.9,4.5,5.5c1.9,1.6,4.1,2.7,6.4,3.4c2.2,0.6,4.4,0.9,6.7,0.6c0.7-0.1,1.5-0.2,2.2-0.3
		c2.9-0.7,5.5-2,7.7-3.8C396.1,152.1,396.3,152,396.6,151.9z"/>
	<path class="st18" d="M386.6,124.3c5.4,1.9,9.3,5.5,11.5,10.8c0.1,0.2,0.1,0.4,0.2,0.6c0,0.6-0.1,1.3,0,1.9c0.2,1.7,0,3.4-0.5,5
		c-0.8,2.6-2.2,4.8-4.3,6.6c-1.6,1.4-3.5,2.3-5.5,2.9c-1.8,0.5-3.6,0.6-5.5,0.3c-2.9-0.4-5.3-1.5-7.5-3.4c-2.1-1.8-3.5-4.1-4.2-6.8
		c-0.8-2.8-0.8-5.6,0.2-8.4c1.4-3.8,3.9-6.6,7.6-8.3c2.3-1,4.7-1.4,7.3-1.1C386,124.6,386.3,124.4,386.6,124.3z M372,138.5
		c-0.1,6.9,5.5,12,11.6,12.2c3.6,0.2,6.8-1.1,9.3-3.7c2.5-2.5,3.8-5.8,3.5-9.3c-0.5-6.5-5.4-11.3-12-11.5
		C377.4,126.1,371.9,131.8,372,138.5z"/>
	<path class="st19" d="M396.6,151.9c-0.2,0.1-0.5,0.2-0.7,0.3c-2.3,1.9-4.9,3.1-7.7,3.8c-0.7,0.2-1.5,0.3-2.2,0.3
		c-2.3,0.2-4.5,0-6.7-0.6c-2.4-0.7-4.5-1.8-6.4-3.4c-1.9-1.5-3.4-3.4-4.5-5.5c-1-1.8-1.6-3.7-1.8-5.8c-0.1-1-0.3-2-0.2-3.1
		c0.1-3.1,0.8-6,2.5-8.6c0.5-0.8,1.1-1.6,1.6-2.5c0.1-0.2,0.2-0.5,0.2-0.7c2-1.3,4.1-2.2,6.5-2.6c-0.1,0.2-0.2,0.4-0.4,0.5
		c-0.5,0.3-1,0.6-1.5,1c-2.5,1.7-4.3,3.9-5.6,6.6c-1.3,2.9-1.7,5.9-1.3,9c0.6,3.9,2.4,7.2,5.4,9.9c2.7,2.3,5.8,3.5,9.2,3.9
		c3.1,0.3,6-0.3,8.7-1.7c2.8-1.5,5.2-3.6,6.7-6.5c0.2-0.4,0.5-0.7,0.8-1c-0.3,2.2-1.1,4.3-2.3,6.2
		C396.7,151.7,396.7,151.8,396.6,151.9z"/>
	<path class="st20" d="M397.4,152.5c4-6.9,4.2-13.9,0-20.7c-4.1-6.8-10.5-9.7-18.6-9.5c1.2-0.7,2.4-1,3.5-1.3
		c4.5-0.9,8.4,0.3,11.9,3.2c3.1,2.5,5.3,5.7,6.8,9.4c0.6,1.4,0.9,2.8,1.4,4.2c-0.1,0.2-0.2,0.4-0.2,0.6c-0.2,1.7-0.2,3.5-0.6,5.2
		c-0.5,2.8-1.7,5.4-3.3,7.8C398.1,151.8,398.1,152.5,397.4,152.5z"/>
	<path class="st21" d="M386.6,124.3c-0.3,0.1-0.6,0.2-0.8,0.2c-2.5-0.3-4.9,0.1-7.3,1.1c-3.7,1.7-6.2,4.5-7.6,8.3
		c-1,2.7-1.1,5.5-0.2,8.4c0.8,2.7,2.2,4.9,4.2,6.8c2.1,1.9,4.6,3,7.5,3.4c1.9,0.2,3.7,0.2,5.5-0.3c2-0.6,3.9-1.5,5.5-2.9
		c2.1-1.8,3.5-4,4.3-6.6c0.5-1.6,0.8-3.3,0.5-5c-0.1-0.6,0-1.3,0-1.9c0.7,1.8,1.1,3.7,1.1,5.6c-0.1,0.1-0.2,0.2-0.3,0.3
		c-0.5,1.3-0.9,2.6-1.5,3.9c-1.4,3-3.7,5.1-6.6,6.6c-2.3,1.2-4.7,1.6-7.3,1.6c-2.1-0.1-4-0.5-5.9-1.4c-2-0.9-3.7-2.3-5.1-3.9
		c-1.2-1.4-2.1-3-2.7-4.7c-0.7-1.9-0.9-3.9-0.8-6c0.1-1.4,0.3-2.7,0.7-4c0.9-2.7,2.5-5,4.7-6.8c0.7-0.6,1.5-1.1,2.3-1.5
		c1.3-0.6,2.7-1.1,4.1-1.6c0.2-0.1,0.3-0.2,0.5-0.3C383.2,123.4,384.9,123.8,386.6,124.3z"/>
	<path class="st16" d="M397.4,152.5c0.7,0,0.7-0.7,1-1.1c1.7-2.3,2.8-4.9,3.3-7.8c0.3-1.7,0.4-3.5,0.6-5.2c0-0.2,0.2-0.4,0.2-0.6
		c0.6,2.8,0.8,5.6,0.5,8.5c-0.2,2.4-0.8,4.8-1.9,7c-2.2,4.3-5.6,7-10.5,7.7c-1.4,0.2-2.8,0.4-4.3,0.1c0.6-0.2,1.2-0.4,1.7-0.7
		C392.1,158.7,395.1,156.1,397.4,152.5z"/>
	<path class="st22" d="M381.4,123.4c-0.2,0.1-0.3,0.2-0.5,0.3c-1.4,0.5-2.8,1-4.1,1.6c-0.8,0.4-1.6,1-2.3,1.5
		c-2.2,1.8-3.8,4.1-4.7,6.8c-0.4,1.3-0.6,2.6-0.7,4c-0.1,2.1,0.1,4,0.8,6c0.6,1.7,1.5,3.3,2.7,4.7c1.4,1.7,3.1,3,5.1,3.9
		c1.9,0.9,3.8,1.3,5.9,1.4c2.6,0.1,5-0.4,7.3-1.6c2.9-1.5,5.2-3.6,6.6-6.6c0.6-1.2,1-2.6,1.5-3.9c0-0.1,0.2-0.2,0.3-0.3
		c-0.1,1.3-0.2,2.7-0.3,4c-0.3,0.3-0.6,0.6-0.8,1c-1.5,2.9-3.9,5-6.7,6.5c-2.7,1.4-5.6,2.1-8.7,1.7c-3.5-0.4-6.6-1.6-9.2-3.9
		c-3-2.6-4.8-5.9-5.4-9.9c-0.5-3.1-0.1-6.1,1.3-9c1.3-2.7,3.1-5,5.6-6.6c0.5-0.3,1-0.6,1.5-1c0.2-0.1,0.3-0.3,0.4-0.5
		C378.5,123.6,379.9,123.5,381.4,123.4z"/>
	<path class="st23" d="M372,138.5c-0.1-6.7,5.4-12.4,12.4-12.2c6.6,0.2,11.5,5,12,11.5c0.3,3.5-1,6.8-3.5,9.3
		c-2.5,2.6-5.7,3.8-9.3,3.7C377.5,150.4,371.9,145.3,372,138.5z M384.2,148.2c5.4,0.2,9.6-4.4,9.7-9.3c0.1-5.8-4.3-9.7-9.1-10
		c-6-0.4-10.4,4.5-10.4,9.7C374.5,143.9,378.8,148.3,384.2,148.2z"/>
	<path class="st24" d="M384.2,148.2c-5.4,0.1-9.7-4.3-9.7-9.7c0-5.2,4.3-10.1,10.4-9.7c4.8,0.3,9.2,4.2,9.1,10
		C393.8,143.8,389.6,148.3,384.2,148.2z M384.1,146.3c4.6,0.1,7.9-3.5,8-7.7c0-4.6-3.4-7.8-7.5-8c-4.5-0.2-8.3,3.3-8.3,7.8
		C376.3,142.7,379.6,146.4,384.1,146.3z"/>
	<path class="st25" d="M384.1,146.3c-4.5,0-7.9-3.6-7.8-7.9c0-4.5,3.8-8.1,8.3-7.8c4.1,0.2,7.5,3.4,7.5,8
		C392,142.8,388.7,146.4,384.1,146.3z M390.7,138.5c0.2-3.7-2.9-6.5-6.2-6.6c-4-0.1-6.7,2.8-6.9,6.2c-0.2,4.2,3.2,6.8,6.4,6.9
		C387.8,145.2,390.9,141.9,390.7,138.5z"/>
	<path class="st26" d="M390.7,138.5c0.2,3.3-2.9,6.6-6.6,6.5c-3.2-0.1-6.6-2.8-6.4-6.9c0.2-3.4,2.9-6.3,6.9-6.2
		C387.8,132,390.9,134.8,390.7,138.5z M384.1,143.1c2.5,0.2,4.8-2.1,4.8-4.6c0-2.7-2.1-4.7-4.7-4.7c-2.8,0-4.7,2.1-4.7,4.7
		C379.5,141.1,381.6,143.2,384.1,143.1z"/>
	<path class="st27" d="M384.1,143.1c-2.5,0-4.6-2-4.6-4.6c0-2.5,1.9-4.7,4.7-4.7c2.6,0,4.7,2.1,4.7,4.7
		C388.9,141,386.6,143.3,384.1,143.1z M380.7,138.4c0,2,1.5,3.5,3.4,3.5c2,0,3.5-1.6,3.6-3.5c0-2-1.8-3.5-3.4-3.5
		C382.3,135,380.7,136.5,380.7,138.4z"/>
	<path class="st28" d="M380.7,138.4c0-2,1.5-3.4,3.5-3.4c1.6,0,3.5,1.4,3.4,3.5c0,1.9-1.6,3.5-3.6,3.5
		C382.2,141.9,380.7,140.4,380.7,138.4z"/>
</g>
</svg>
