<?xml version="1.0" encoding="utf-8"?>
<!-- Generator: Adobe Illustrator 28.0.0, SVG Export Plug-In . SVG Version: 6.00 Build 0)  -->
<svg version="1.1" id="Layer_1" xmlns="http://www.w3.org/2000/svg" x="0px" y="0px"
	 viewBox="0 0 500 300" style="enable-background:new 0 0 500 300;" xml:space="preserve">
<style type="text/css">
	.st0{fill:#30BED2;}
	.st1{fill:#2EBED2;}
	.st2{fill:#4EC4D6;}
	.st3{fill:#66CAD9;}
	.st4{fill:#5BC7D8;}
	.st5{fill:#73CDDC;}
	.st6{fill:#41C2D5;}
	.st7{fill:#38C0D2;}
	.st8{fill:#62C9D9;}
	.st9{fill:#FAFCFD;}
	.st10{fill:#7BCFDD;}
	.st11{fill:#87D3E0;}
	.st12{fill:#90D5E2;}
	.st13{fill:#80D1DF;}
	.st14{fill:#A1DBE6;}
	.st15{fill:#A9DEE8;}
	.st16{fill:#B1E1E9;}
	.st17{fill:#E6753E;}
	.st18{fill:#F5A841;}
	.st19{fill:#EC863E;}
	.st20{fill:#BCE4EC;}
	.st21{fill:#F19C40;}
	.st22{fill:#EF9340;}
	.st23{fill:#F8BB47;}
	.st24{fill:#FAC55D;}
	.st25{fill:#FBCC70;}
	.st26{fill:#FBD07C;}
	.st27{fill:#FDD993;}
	.st28{fill:#FDDFA5;}
	.st29{fill:#E41954;}
	.st30{fill:#1A5783;}
	.st31{fill:#1B5783;}
	.st32{fill:#235985;}
	.st33{fill:#265A85;}
	.st34{fill:#225985;}
	.st35{fill:#225984;}
	.st36{fill:#275A86;}
	.st37{fill:#245985;}
	.st38{fill:#1F5884;}
	.st39{fill:#215884;}
	.st40{fill:#215984;}
	.st41{fill:#295B86;}
	.st42{fill:#265A86;}
	.st43{fill:#255A85;}
	.st44{fill:#2D5D87;}
	.st45{fill:#185682;}
	.st46{fill:#3491CE;}
	.st47{fill:#4696D1;}
	.st48{fill:#88847C;}
	.st49{fill:#8A846C;}
	.st50{fill:#F6D619;}
	.st51{fill:#686457;}
	.st52{fill:#BCAB58;}
	.st53{fill:#D8BF40;}
	.st54{fill:#CAB54C;}
	.st55{fill:#AF7245;}
	.st56{fill:#448FBA;}
	.st57{fill:#968C60;}
	.st58{fill:#EDCF26;}
	.st59{fill:#E4C832;}
	.st60{fill:#A59A6C;}
	.st61{fill:#827A5E;}
	.st62{fill:#A19B87;}
	.st63{fill:#F4DA5E;}
	.st64{fill:#79746E;}
	.st65{fill:#514E49;}
	.st66{fill:#DB3228;}
	.st67{fill:#D3C798;}
	.st68{fill:#A99C5E;}
	.st69{fill:#576972;}
	.st70{fill:#628593;}
	.st71{fill:#DDDFE1;}
	.st72{fill:#F6F6F4;}
	.st73{fill:#373631;}
	.st74{fill:#1A1A15;}
	.st75{fill:#FCFDFE;}
</style>
<g>
	<path id="st0" class="st29" d="M377.2,175.9c0-2.4,1-3.8,2.7-3.8s2.7,1.4,2.7,3.8c0,2.4-1,3.8-2.7,3.8
		C378.1,179.6,377.2,178.2,377.2,175.9 M380.1,186.5c2.7,0,5.8-1.2,5.8-4.8v-11.6h-3.3v2.6c-0.5-1.6-1.8-2.9-3.9-2.9
		c-2.9,0-4.9,2.4-4.9,6c0,3.6,2,6,4.9,6c1.8,0,3.3-1.1,3.9-2.6v2.5c0,1.7-1.1,2.4-2.5,2.4c-1.2,0-2.2-0.5-2.4-1.7h-3.4
		C374.6,185.3,377.3,186.5,380.1,186.5 M365.7,182h3.4v-6.2c0-2,1-2.7,3.1-2.7h0.9v-3.3c-2.3,0-3.5,1.5-3.9,3.4v-3.1h-3.3L365.7,182
		L365.7,182z M356,182.2c2.1,0,3.2-1.2,3.7-2.6v2.4h3.3v-11.8h-3.3v6.7c0,2-0.7,3-2.1,3c-1.4,0-2.1-0.9-2.1-3v0v-6.7h-3.4v7.5v0
		C352.2,180.2,353.3,182.2,356,182.2 M341.3,176c0-2.4,1-3.9,2.7-3.9c1.8,0,2.8,1.5,2.8,3.9c0,2.4-1,3.9-2.8,3.9
		C342.3,180,341.3,178.4,341.3,176 M345.4,182.2c2.9,0,4.9-2.6,4.9-6.2c0-3.5-2-6.2-4.9-6.2c-2.1,0-3.4,1.4-3.9,2.9v-7.4h-3.3V182
		h3.3v-2.4C342.1,181.1,343.6,182.2,345.4,182.2 M330.7,182.2c3.1,0,5.6-1.4,5.6-3.8c0-1.9-1.2-3-3.7-3.5l-2.1-0.5
		c-1.2-0.3-1.9-0.5-1.9-1.2c0-0.7,0.9-1.1,2-1.1c1,0,1.8,0.4,2.1,1.1h3.4c-0.5-2.3-2.7-3.4-5.5-3.4c-2.8,0-5.1,1.4-5.1,3.7
		c0,1.8,1.2,2.8,3.5,3.3l2.1,0.5c1.6,0.4,2.1,0.7,2.1,1.4c0,0.8-0.8,1.2-2.2,1.2c-1,0-2.1-0.3-2.3-1.6h-3.4
		C325.6,181,327.8,182.2,330.7,182.2 M314.6,175.9c0-2.4,1-3.8,2.8-3.8c1.8,0,2.7,1.4,2.7,3.8c0,2.4-1,3.8-2.7,3.8
		C315.6,179.6,314.6,178.2,314.6,175.9 M317.6,186.5c2.7,0,5.8-1.2,5.8-4.8v-11.6H320v2.6c-0.5-1.6-1.8-2.9-3.9-2.9
		c-2.9,0-4.9,2.4-4.9,6c0,3.6,2,6,4.9,6c1.8,0,3.3-1.1,3.9-2.6v2.5c0,1.7-1.1,2.4-2.5,2.4c-1.2,0-2.2-0.5-2.4-1.7h-3.4
		C312.1,185.3,314.8,186.5,317.6,186.5 M302.2,182.2c2.1,0,3.2-1.2,3.8-2.6v2.4h3.3v-11.8h-3.3v6.7c0,2-0.7,3-2.1,3s-2.1-0.9-2.1-3
		v0v-6.7h-3.3v7.5v0C298.3,180.2,299.4,182.2,302.2,182.2 M285.9,174.6l2.7-8.6l2.7,8.6H285.9z M279.9,182h3.6l1.4-4.5h7.2l1.4,4.5
		h3.6l-5.5-16.6h-6.3L279.9,182z"/>
	<path id="st0_00000162319262558790519050000012453649736211703978_" class="st29" d="M400,151.3c0.3-1.8,1.3-2.7,2.6-2.7
		c1.4,0,2.4,1,2.6,2.7H400z M402.6,158.8c2.8,0,4.9-1.3,5.7-3.8H405c-0.4,1-1,1.5-2.4,1.5c-1.4,0-2.4-1-2.6-2.9h8.5
		c0-0.3,0-0.7,0-0.9c0-3.8-2.3-6.2-6-6.2c-3.6,0-6,2.5-6,6.2C396.6,156.2,398.9,158.8,402.6,158.8 M391.3,158.5h3.3v-16.6h-3.3
		V158.5z M381.7,158.8c2.1,0,3.2-1.2,3.7-2.6v2.3h3.3v-11.8h-3.3v6.7c0,2-0.7,3-2.1,3c-1.4,0-2.1-0.9-2.1-3v0v-6.7h-3.4v7.5v0
		C377.8,156.8,378.9,158.8,381.7,158.8 M364.4,158.5h3.4v-6.7c0-2.1,0.8-3,2.2-3s2.2,0.9,2.2,3v0v6.7h3.4V151v0c0-2.6-1.2-4.6-4-4.6
		c-2.1,0-3.2,1.2-3.8,2.7V142h-3.3L364.4,158.5L364.4,158.5z M356.8,158.8c3,0,5.3-1.6,5.9-4.5h-3.4c-0.4,1.4-1.2,2.2-2.5,2.2
		c-1.7,0-2.7-1.4-2.7-3.9c0-2.4,1-3.9,2.7-3.9c1.4,0,2.1,1,2.4,2.3h3.4c-0.5-2.7-2.7-4.5-5.8-4.5c-3.6,0-6.2,2.5-6.2,6.2
		C350.6,156.3,353.1,158.8,356.8,158.8 M343.6,158.8c3.1,0,5.6-1.4,5.6-3.8c0-1.9-1.2-3-3.7-3.5l-2.1-0.5c-1.2-0.3-1.9-0.5-1.9-1.2
		c0-0.7,0.9-1.1,2-1.1c1,0,1.8,0.4,2.1,1.1h3.4c-0.5-2.3-2.8-3.4-5.5-3.4c-2.8,0-5.1,1.4-5.1,3.7c0,1.7,1.2,2.8,3.4,3.3l2.1,0.5
		c1.6,0.4,2.1,0.7,2.1,1.4c0,0.8-0.8,1.3-2.3,1.3c-1,0-2.1-0.4-2.3-1.6h-3.4C338.5,157.5,340.7,158.8,343.6,158.8 M325.3,158.5h3.4
		v-6.7c0-2.1,0.8-3,2.2-3s2.2,0.9,2.2,3v0v6.7h3.4V151v0c0-2.6-1.2-4.6-4-4.6c-2.1,0-3.2,1.2-3.8,2.7V142h-3.3L325.3,158.5
		L325.3,158.5z M317.7,158.8c3,0,5.3-1.6,5.9-4.5h-3.4c-0.3,1.4-1.1,2.2-2.5,2.2c-1.7,0-2.7-1.4-2.7-3.9c0-2.4,1-3.9,2.7-3.9
		c1.4,0,2.1,1,2.4,2.3h3.4c-0.5-2.7-2.7-4.5-5.8-4.5c-3.6,0-6.1,2.5-6.1,6.2C311.6,156.3,314.1,158.8,317.7,158.8 M301.1,152.6
		c0-2.4,1-3.9,2.7-3.9c1.8,0,2.8,1.5,2.8,3.9c0,2.4-1,3.9-2.8,3.9C302,156.5,301.1,155,301.1,152.6 M303.9,158.8
		c3.8,0,6.2-2.6,6.2-6.2c0-3.6-2.4-6.2-6.2-6.2c-3.8,0-6.2,2.5-6.2,6.2C297.7,156.2,300.1,158.8,303.9,158.8 M292.2,158.5h3.4v-16.6
		h-3.4v6.5h-7v-6.5h-3.4v16.6h3.4v-6.9h7V158.5z"/>
	<path id="st0_00000166672067811131081980000010135385488516946103_" class="st29" d="M394.5,127.9c0.3-1.8,1.3-2.7,2.6-2.7
		c1.4,0,2.4,1,2.6,2.7H394.5z M397.1,135.3c2.8,0,4.9-1.3,5.7-3.8h-3.4c-0.4,1-1,1.5-2.4,1.5c-1.4,0-2.4-1-2.6-2.9h8.5
		c0-0.3,0-0.7,0-0.9c0-3.8-2.3-6.2-6-6.2c-3.6,0-6,2.5-6,6.2C391.1,132.7,393.4,135.3,397.1,135.3 M378.2,135h3.3v-6.8
		c0-2.1,0.8-3,2.2-3c1.4,0,2.2,0.9,2.2,3v0v6.7h3.4v-7.4v0c0-2.6-1.2-4.6-3.9-4.6c-2.1,0-3.2,1.2-3.8,2.7v-7.1h-3.3V135z
		 M370.6,135.3c3,0,5.3-1.6,5.9-4.5h-3.4c-0.4,1.4-1.2,2.2-2.5,2.2c-1.7,0-2.7-1.4-2.7-3.9c0-2.4,1-3.9,2.7-3.9c1.4,0,2.1,1,2.4,2.3
		h3.4c-0.5-2.8-2.7-4.5-5.8-4.5c-3.6,0-6.1,2.4-6.1,6.2C364.5,132.8,366.9,135.3,370.6,135.3 M357.4,135.3c3.1,0,5.6-1.4,5.6-3.8
		c0-1.9-1.2-3-3.7-3.5l-2.1-0.5c-1.2-0.3-1.9-0.5-1.9-1.2c0-0.7,0.9-1.1,2-1.1c1,0,1.8,0.4,2.1,1.1h3.4c-0.5-2.3-2.8-3.4-5.5-3.4
		c-2.8,0-5.1,1.4-5.1,3.7c0,1.8,1.2,2.8,3.5,3.3l2.1,0.5c1.6,0.3,2.1,0.7,2.1,1.4c0,0.8-0.8,1.2-2.3,1.2c-1,0-2.1-0.3-2.3-1.6H352
		C352.3,134,354.5,135.3,357.4,135.3 M346.7,121.6h3.4v-3.1h-3.4V121.6z M346.7,135h3.3v-11.9h-3.3V135z M333.2,135h3.3v-6.8
		c0-2.1,0.8-3,2.2-3c1.4,0,2.2,0.9,2.2,3v0v6.7h3.4v-7.4v0c0-2.6-1.2-4.6-3.9-4.6c-2.1,0-3.2,1.2-3.8,2.7v-2.4h-3.3V135z M319.7,135
		h3.4v-6.8c0-2.1,0.8-3,2.2-3s2.2,0.9,2.2,3v0v6.7h3.3v-7.4v0c0-2.6-1.2-4.6-3.9-4.6c-2.1,0-3.2,1.2-3.8,2.7v-7.1h-3.3V135z
		 M312.1,135.3c3,0,5.3-1.6,5.9-4.5h-3.4c-0.4,1.4-1.2,2.2-2.5,2.2c-1.7,0-2.7-1.4-2.7-3.9c0-2.4,1-3.9,2.7-3.9c1.4,0,2.1,1,2.4,2.3
		h3.4c-0.5-2.8-2.7-4.5-5.8-4.5c-3.6,0-6.1,2.4-6.1,6.2C306,132.8,308.4,135.3,312.1,135.3 M295.9,127.9c0.3-1.8,1.3-2.7,2.6-2.7
		c1.4,0,2.4,1,2.6,2.7H295.9z M298.5,135.3c2.8,0,4.9-1.3,5.7-3.8h-3.4c-0.4,1-1,1.5-2.3,1.5c-1.4,0-2.4-1-2.6-2.9h8.5
		c0-0.3,0.1-0.7,0.1-0.9c0-3.8-2.3-6.2-6-6.2c-3.6,0-6,2.5-6,6.2C292.5,132.7,294.8,135.3,298.5,135.3 M285.5,135h3.4v-13.7h5.1
		v-2.9h-13.7v2.9h5.1L285.5,135L285.5,135z"/>
	<path id="st0_00000147938358634086319280000003543783529113892266_" class="st29" d="M233.9,158.7h12.6v21.8L233.9,158.7z
		 M197.1,146.2v-26l15.1,26H197.1z M142,182h13.4v-23.3h23.6v-12.5h-23.6v-27.7H142V182z M104.4,182h13.4v-51H137v-12.5H85.1V131
		h19.2V182z M245.6,182h14.3v-3.5c0-16.4-9.9-32.2-29.1-32.2h-4.1l-10.3-17.7c-3.9-6.8-9.5-10-18.5-10h-14.1V182h13.4v-23.3h22.3
		l7.6,13.2C231,178.7,236.6,182,245.6,182"/>
</g>
</svg>
